<mxfile host="app.diagrams.net" modified="2021-07-06T19:49:03.867Z" agent="5.0 (Windows NT 10.0; Win64; x64) AppleWebKit/537.36 (KHTML, like Gecko) Chrome/91.0.4472.124 Safari/537.36" etag="kajOAy6xyUJwQbEiV7LF" version="14.8.3" type="github">
  <diagram name="Page-1" id="b98fa263-6416-c6ec-5b7d-78bf54ef71d0">
    <mxGraphModel dx="1422" dy="1944" grid="1" gridSize="10" guides="1" tooltips="1" connect="1" arrows="1" fold="1" page="1" pageScale="1.5" pageWidth="1169" pageHeight="826" background="none" math="0" shadow="0">
      <root>
        <mxCell id="0" style=";html=1;" />
        <mxCell id="1" style=";html=1;" parent="0" />
        <mxCell id="A_uLEfL_Cp8y6BZKQuvn-1" value="NERS" style="shape=datastore;whiteSpace=wrap;html=1;" vertex="1" parent="1">
          <mxGeometry x="690" y="390" width="60" height="60" as="geometry" />
        </mxCell>
        <mxCell id="A_uLEfL_Cp8y6BZKQuvn-2" value="VERS (dbs)" style="shape=datastore;whiteSpace=wrap;html=1;" vertex="1" parent="1">
          <mxGeometry x="780" y="390" width="60" height="60" as="geometry" />
        </mxCell>
        <mxCell id="A_uLEfL_Cp8y6BZKQuvn-3" value="VERS&lt;br&gt;(process)" style="shape=process;whiteSpace=wrap;html=1;backgroundOutline=1;" vertex="1" parent="1">
          <mxGeometry x="930" y="390" width="120" height="60" as="geometry" />
        </mxCell>
        <mxCell id="A_uLEfL_Cp8y6BZKQuvn-4" value="" style="endArrow=classic;html=1;startArrow=classic;startFill=1;" edge="1" parent="1" source="A_uLEfL_Cp8y6BZKQuvn-2" target="A_uLEfL_Cp8y6BZKQuvn-3">
          <mxGeometry width="50" height="50" relative="1" as="geometry">
            <mxPoint x="700" y="430" as="sourcePoint" />
            <mxPoint x="750" y="380" as="targetPoint" />
          </mxGeometry>
        </mxCell>
        <mxCell id="A_uLEfL_Cp8y6BZKQuvn-5" value="GARFO" style="shape=datastore;whiteSpace=wrap;html=1;" vertex="1" parent="1">
          <mxGeometry x="1290" y="390" width="60" height="60" as="geometry" />
        </mxCell>
        <mxCell id="A_uLEfL_Cp8y6BZKQuvn-6" value="" style="endArrow=classic;html=1;" edge="1" parent="1" source="A_uLEfL_Cp8y6BZKQuvn-3" target="A_uLEfL_Cp8y6BZKQuvn-5">
          <mxGeometry width="50" height="50" relative="1" as="geometry">
            <mxPoint x="700" y="430" as="sourcePoint" />
            <mxPoint x="750" y="380" as="targetPoint" />
          </mxGeometry>
        </mxCell>
        <mxCell id="A_uLEfL_Cp8y6BZKQuvn-10" value="FLDRS" style="label;whiteSpace=wrap;html=1;align=center;verticalAlign=bottom;spacingLeft=0;spacingBottom=4;imageAlign=center;imageVerticalAlign=top;image=data:image/jpeg,/9j/4AAQSkZJRgABAQEAYABgAAD/2wBDAAMCAgMCAgMDAwMEAwMEBQgFBQQEBQoHBwYIDAoMDAsKCwsNDhIQDQ4RDgsLEBYQERMUFRUVDA8XGBYUGBIUFRT/2wBDAQMEBAUEBQkFBQkUDQsNFBQUFBQUFBQUFBQUFBQUFBQUFBQUFBQUFBQUFBQUFBQUFBQUFBQUFBQUFBQUFBQUFBT/wAARCAD+AP4DASIAAhEBAxEB/8QAHwAAAQUBAQEBAQEAAAAAAAAAAAECAwQFBgcICQoL/8QAtRAAAgEDAwIEAwUFBAQAAAF9AQIDAAQRBRIhMUEGE1FhByJxFDKBkaEII0KxwRVS0fAkM2JyggkKFhcYGRolJicoKSo0NTY3ODk6Q0RFRkdISUpTVFVWV1hZWmNkZWZnaGlqc3R1dnd4eXqDhIWGh4iJipKTlJWWl5iZmqKjpKWmp6ipqrKztLW2t7i5usLDxMXGx8jJytLT1NXW19jZ2uHi4+Tl5ufo6erx8vP09fb3+Pn6/8QAHwEAAwEBAQEBAQEBAQAAAAAAAAECAwQFBgcICQoL/8QAtREAAgECBAQDBAcFBAQAAQJ3AAECAxEEBSExBhJBUQdhcRMiMoEIFEKRobHBCSMzUvAVYnLRChYkNOEl8RcYGRomJygpKjU2Nzg5OkNERUZHSElKU1RVVldYWVpjZGVmZ2hpanN0dXZ3eHl6goOEhYaHiImKkpOUlZaXmJmaoqOkpaanqKmqsrO0tba3uLm6wsPExcbHyMnK0tPU1dbX2Nna4uPk5ebn6Onq8vP09fb3+Pn6/9oADAMBAAIRAxEAPwD9U6KKKACiiigAooooAKKKKACiivM/iz+0H8OPgZZNceO/GOl+HnESzC1nuN13KrPt3RWq7pZRuz9xW+6392gD0rbRtr8uPin/AMFoo9t9afDf4eO0uUNnqvie6+Qfc377WD738arif+63+zXw98Tv2vvjL8al+z+K/iLqt5YTRrC+n2sq2NpIqPvTfDAIonbd/E/zfKv91a6oYapIXMfuJ46/bE+C/wANbr7J4i+I+h2Vxs3eTFOZ3x/2yDV4TrH/AAV4+Aum/wDHs3ibVv8Arx0tR/6MlSvxLRFT7q0V2xwMftk8x+t/ij/gtN4Is7qJfDnw78QarbtHzJql5BYOjn+Havm/L935t1ct/wAPvh/0Rdtv/Y0f/cVflzRXR9TpBzH6l2f/AAW4tn4uvg5NEn96HxMr/wA7Va7Pwr/wWe+HF/LKviLwR4n0XbtETWJgvF/2t+54tv8AD/e61+QNFL6jTDmP3V8If8FS/wBnrxXuW58V3nhuU42x6xpk6lv+BRK6/wDj1e7fDv49fD34rwq/hDxfpWvbmZFitrpfNcqu47Ub5m+XvX82lPs7qWwukubaWW2nX7ssL7GX/gVYSwP8ocx/UZRX4A/C/wD4KH/Hv4XXqvb+O7zxNZb1eSx8UN/aKybf4d7fvUX/AHHWvub4P/8ABY7wP4ga1sviJ4Y1Dwjcv5aPqOmN/aFnu/5ayuo2yxrn+FVlbn/vrjqYWrAs/RmiuO+HXxU8IfFbRI9X8I+IrDxDp5x++spd20/MPnX7yfdb71djXIAUUUUAFFFFABRRRQAUUVR1LUf7PhWTy9+5tv3qAL1FFFABRRRQAUUUUAJmuD+Kfxq8EfBPw/8A2z448R2fh2wIxG1w5aWZvlysUS7pJW+ZflRWr5k/bE/4KSeF/wBnq4v/AAv4TS28XfEG3ISW3Z/9BsH/AIhOytuZ1/55L/e+Zl21+PPxU+MHjD41eKJvEfjTXrrX9Um3FZLp96QJudxFAn/LKIM7/Iny110cNKqTzH2H+0v/AMFW/HPxMurnR/hktz4A8Npvi+3M6vqd58+Ubf8Adg+Xb8qbm5b52r4TvLy61K8lu7yeW8upW3yXFw292/3maq1Fe3TpRpfCQFFFFbgFFFFABRRRvVP4qLgFFG/dRRcAooooAKKKKAOs+GvxS8WfCTxRa+IPCGv3Xh7VbeXcJrd/lf2dG+R1/wBl6/Tz9mX/AIK7aF4ibSvDvxd08eH75YPKl8W2pZrS5lX7ry26Jug3r/d3Lu/uL938l6K5auHjV+Io/p60HX9M8VaPbapo+p2msaddJvhvbGdJ4ZV9VdflatXFfz5fsw/tqfET9lfUDD4evF1LwrdTCW78N6gfMtJG2bN8Tffif/c+9sXdv21+yf7Lv7XXgv8Aao8MyXvh6f7DrFof9N0W5kzcW6/3+PvJ23f3v+A7vEq0JUiz3uiiiucAooooAKKKKACiiigAooooATtX5df8FAv+Cjqr/aXwy+FGpRyk77bWfE1uQ6r2e3tT/F3DP/3z61e/4KSf8FALCz0a7+E/wx1ZrjVLgtHruu2b/uraL5la0if+J2/jdflVfl+be2z8p69HDYbm96REh8kjTStK7s7s25mf77NTKKK9wkKK9r+Af7H/AMTf2lLqNvCXh1odHLbZNe1MNbWEXb/W7f3rf7MSs1fo98DP+CRfw68Cql78QtRvfH2qLhmsod1jp6/7O1W82TkfxOqt/drlqYqlSKPyP8LeC/EHjzVE03wzoepeIdSb/l00qzlupv8AvhFr6s+HP/BKv47+OrdbnU9N0nwVattdP7evv3rr/wBcoFlbd/svs+7X7S+DvAug+ANDi0fw1omn6DpUX3LLTLZLeJP9rao+9XR15csbP7Icp+aPgf8A4IreHbdlbxh8StW1FdvzW+hWMVl/49L5v/oNe2eG/wDglf8As7aKkRuvC+pa86r9/UtXuPm/79Oi19hUVzSr1ZfaLPDvDv7EvwH8M2ogs/hJ4Vmj27d2o6Yl6/8A31Pvauhtf2YPg7p+/wCyfCfwPbbvveV4ds0/9pV6hRWPOwPLrv8AZb+Dd9N5t38JfA91L/z0l8N2Tt/6KrlPEf7CHwA8Wf8AIR+E3hu3/wCwZbf2f/6Tsle+UVfMwPi3xN/wSZ+AGvKy2OneIPDbNyZtM1d3Zf8Av+sq14X47/4IqxbrifwX8SnRPm8qx8QafvP+zvniZf8A0VX6jUVca9SP2gPwX+Jv/BNH4+/C+KW6HhIeL9Pi5a68NT/bT/wG3ZVnb/v1XzNrOk32g6jcWWp2dzpuoQPsltLuJopYv95G+av6ga4D4ofBXwR8ZNG/srxv4U03xNabXWP7bb75oN33vKl+/E3+0jLXXHGz+0Ryn82NFfrH8bv+COHh7VnudQ+FfimXQbhgzJoniDdPaf7i3C/vY1/3llr84vi18A/iD+z/AK0tj458K3WiszskF1Mu61udvP7qdflb/gLbq9KniadX4QPOa6X4d/ETxB8KfF1l4j8LarcaRrVp/q7i3laJmT+NPl+8r1zVFdUo85J+7f7EP7dGg/tQaFFouqTQ6T8RLKLN1pxbb9sVes0Q/wDQl/hz/wB8/WmeK/mR8FeN9Y+H/jLR/FOgXg03XNJuVvLS4VVfa6tuU7W+Vl/h21+7f7Gn7ZHh79rHwSJQsOj+NtNRV1bQvM+7yP8ASIM/M0LH8VPyt/CzeBicN7L3o/CVE+lKKKK4SwooooAKKKKAEr4b/wCClX7Y0fwN8Bv4G8OXlvL418RW0kb9JH061YbWdl/hZ1ZlQn6/7VfUXx4+LemfAj4R+JfHurwyT2OjW3nG3jO155WdY4oh7s7ov/Aq/nb+JnxD1j4qeO9b8Wa/c/adW1adrqZ/4EZm3bF/2V+7XdhKPtpEyOYkkaZnaVmd2bezN99qbRXuv7LP7JPjP9qrxamneH7cWHh+1mT+1fEFxHut7NMf+RZP7sS/8C2r81e5KUaceaRB5v8ADv4b+JPi34tsvDXg7Q7vxBrt437u0tE/8fZ2+VV/vM+1Vr9Uv2Xf+CUPhbwP9i174tyweMfEO1ZV0GJP+JZbP/01/iuW/wB7an3/AJW+9X1N+z/+zD4K/Zn8J/2J4M0zyLibb9u1m62ve37D7nmy7Pur/Ci/Kv8Ad+Zq9orwK2LlP3Ylcpm2Gm2ulWMVnZ20dpaQIsUdvbrtSNV+6qqv3a0qKK5CwooooAKKKKACiiigAorwDxp+2R4D+HP7QGhfCDxImq6VreswQT2epTWyf2e7Su6RRebv3bmdNu7bt3fxV7/RygQTSPHC7rH5rKvyqv8AFXmvwD+PHhX9or4fxeLfClzI9q9w9vdWl0uy4s50+9FKv975l/4Cy10fj74m+FPhXo39reLvEmmeGdN37FuNUukgRm/upu++3+ytfl3/AME8f2iNI0P9s7x94X0mZo/A3jy/v7jRYmXy0WWKWWW1bY3+q3Qeav8A36X+GrjT5oykB+uVFFFQAVz/AIs8H6J4+8P3Wh+ItItNb0i8+WexvoElik/4C3/fVdBRQB+Vn7Uv/BJGfT5LvxL8E5Gurb78vhHUJ/nX/r1nf73+7L/3233a/NTWNH1Dw7qt3pmq2Nxpup2crRXNjexNFLAy/eR0b5lav6fq+Yv2tP2G/A/7U2my3tzbLoXje3jdbPxHZRLvb5Pliul/5bxfd/2lx8jL827uo4uUPdkRyn4H133wN+MPiD4C/FDRfHPhmaGPVNLlZ1iuvminjZNssTf7Lqz/AO1/d+apvjN8E/Fv7PvjS/8ACPjLTW07UrfEsT/fhuoixVZ4Gx80bbf02ttZdted17Hu1oEn9I3wH+M2g/tAfDPRvGfhu6jms7+FTNbJIHeyuMfvbeT/AG0b/vrhh8rKa9Kr8H/+Ce/7Wl5+zN8V4tN1R0/4QfxPNBaaqsp/49X37Irtf4vk3tuX+JP91dv7p2d9b6law3NtNHcW0yLJHLE25WVvusrV8/Wp+ylympdooorEAoorzH9oD406J+z38I/EPjjW7iMR6bbO1taSSbXvrojENsjBW+Z32ru2tt5ZvlVqAPys/wCCq37Stz8TPi8/w10m7b/hFfCcgS6hViEutS2HzX+7/wAslfyv++9v3q+EKmvL2bU724u7yRpbq6laWeVv4nZtzPXoHwJ+C/iL9oT4maL4H8Nwb72+k/eXDJ+6soFH724l/wBhV/76+VfvMtfTU4xw9K5kd5+x/wDsm+If2qviMNNs3ksPDGmskuta2Uz5ETf8sov70r/Nt/76r91Phb8K/DXwb8F6f4U8H6RHo2jWKfuraL5tzfxMzsdzu395qyfgf8EfDH7PPw30rwT4StPs+n2S77i4KZmv59q+ZcSsPvSPs/4CAqLtRVWvTa8GtXlVkahRRRXOAUUUUAFFFFABRRRQAV5h8Lfjh4a+Ml54rsNGa5t9X8L6nLpWr6TqQWK7tZFd1VmQM37uUJuR/usuf4ldV9Pr8zv+ChV9r/7KP7Svgj4+eC5FhfXoP7L1/T/uRX/kbPkl/vebFtX/AGfs6NVU480uUD0v/gqr+z1/wtb4E/8ACZ6Vp32nxD4LZ71mGd8unP8A8fS/7WzYkv8AsrE+371fMPwr/wCCu3izwZ8F5tB13QF8VeN7CJbfTNau5/3Vwv8AfvF+80qf31b97/Fsb5n9L+HP/BW7SvE3xw1DTPF2jLpfwt1lYLezubhFaXTG8pVlNzt3LLE8m/n+Fdn+1XwJ+1L8K7f4L/Hnxd4U09ll0S3u/tWkyo+9GsJ0823+f+L906Lu/wBmu+jS5v3dQgx/jF8afFv7QHjS48T+ONZk1fWJU8pN3yQ2sQ+7FFEvyxr/ALv+0zbmZmrlPCXiq/8AA/irRfEmkTfZ9V0e7gv7SXbu2yxMrJ/48tdb4J8Hx+OPh14vWzjX+3PD6JrUe3789j9y6X/gH7h/++/71eeV6vJDl5DKMuY/Uzwb/wAFU38M/tD6pZ+Lb6DWPhJrcdre6fd2sETXehefaxS+VL5X+tWJneOVPmdWT5Wbbtb9Bfhv8ZPBHxcsnvPB/i7R/E0SLukXTbxZWi/66p96L/dev5rq6f4ffEDXvhl4s0jxT4av5NL13Sp1ntruByvzL/C395G+6yN8rLla46uCj9k15j+hPTPjhpt9+0Fqvwok0+e31qy0GDxDHdsyeVdW7SvE4VfvLsbb/wB9f99ep1+Zvh34723jz/goZ8APHNhdRW9h458A/Z7q1ik3+U7fbd1vu/2Lq32/8Ar9Mq8ipHlLCiiioA8U/aY/Zj8HftR+A38O+Kbf7Nd2++bStYt1/wBI064b+JD/ABq2F3Rfdbb/AHlRl/CL42fBHxT+zr8RNQ8G+LrM22p2p82GdRut723fO24ibHzxNtb/AL5ZW2srrX9JFfOP7Zn7KulftTfC640wxQ2fjCxVpdC1iWL/AFEv/PJ2X5vKl+6/93h9vy114av7KWvwkn4AV+0X/BKT9oVfid8Hb3wTq135niXwnIAiOFVpbGT7jrzubbKsqtx/En94V+OHiLw9qXhHXb/RtZsptL1fTp2tbyyuF2ywSr8ro1er/sg/H6//AGbPjrofi6A7tNYfYNUt/MZFntZfv7v9xtj/AO8i16uJp+2p3iI/omoqlZ31vqVpDc200dxbTIskcsTblZW+6ytV2vnyxFr8pv8Agsv8Z5LzWPB/wqsriN7W1T+3tTRWRm85t8VujfxLtTzWx/F5qf7NfqyOlfzq/tmeJL3xR+1d8Wbu8mkllh8R3mnpubd+6gle3Rf++Yq68JDnqiZ4192v25/4Jqfsrx/A/wCD8HivXNP8jxv4sgS7neVP31nZ/et7f/Y4/euv95kVv9UtfnN/wT1/Z/i+Pf7SmiQ6jbLc+G9AX+3NSSVdySrE6eVF/dbfK6bl/urLX721042r/wAuiYhRRRXllhRRRQAUUUUAFFFFABWJY69Yahqmoafbaha3Ooaf5X2y0inVpbXcu5PNT7ybk+Zd3WtuvyT/AOClHx2tvhx+014Z8V/CnxudO8f2GmS6R4hGksrxRqku+KK4+9HK3zSbonVtvlRbv4a1p03VlygfQv7cH7fOtfsofFjwloWj6boHifTLqze61jTJpJYtQg+b5Nsqvti3r93dE33Gr84f2qv2zvGf7VHiuO61Xy9H8N6dIW0zwzC3mQwN/elf5fNl6/N/3yq1zXxy/aT8UftEWugzeOo9O1LxRpKNbp4jt4Et7ie1b5/IlVF2Ntbcysir/rX+9urxx22fer2KGGhD3pfEQdr8SfDNnp81r4g0WFovC+tq9xYqzbvIlT/j4tWb+9Ez7f8AaRom/jrH1zxZqviyHSv7Zv5tR/suxj06za4+Z47aMt5UW7+JV37V3fdXav3VVa+kP2cvhfrPir4X+O9A8QeHrv8A4R/UbVbrR/t0bQbtSRXVZbd2+7/CrP8Ad+X5v7tcxpX7DfxDv1/0m80DSv8Ar7u5X/8ARUT12HJHEU480ZSOa/ZP8Qr4e+Onh1J2/wBH1TzdLki/gl81NiI3+z5uyuV+NXgdfhr8UNf8Pxbvstrc77bd/wA8JUWWL/xx0r33T/2DtXs2gnXxxa213Gysr29jL+6b+8r7lrqPj5+zD4p+Kmu6VrNlq+jzX1vpVvZX0l75sDXU8W/fKu1GX5933aZz/WaXtOaMj4jor2bxB+yT8T9B3uvh5dVhRd+/TLmKX/xz7zf9815zb6PeeFPF2n2niDQLxJYbmLz9KuoHhmnXd80W35W+b7tWdkakZfDIPCfjjWfBPibQNf0m9kg1TQ7qO609nO7yHil81Pl/u7t3y/7Tf3q/dL9kf9tjwV+1H4bsY49RttH8dLB/xMPDkz7Zd6/flg3f62L+L5fu/wAVfhz8T/A1z8NPH2teGrlJP9AumSJ5l2ebB/yyl/4Guxq5qyvrjT7qK5t5Zbe4hZJY5YW2PGy/dZW/hrz69CNU1jLmjzH9QEkywxtLKyoiruZm/hrjvg/8VtB+Nnw50Xxv4aeaTQtWV3tmuovKl+WV4m3L/vI1fkj4X/4KHeM/+GPfHnhTxR4j/t7xfeNFomjXVz/x+rZzxOLqWd8/PsRdqu3z75V+9/D9gfswfFSD4df8Eu7PxhbzR2t34f0DVvKR24+2RXF0sSNt+7vl8r/vta8eVGUPiNT7J8PeJNM8XaTDqmi6hb6rpszskV1aSrLE+1mRtrL1+ZWWtyvj7/glPrY1T9jTw1AZGaXTtQ1G1l3f3munl/8AatdT4s+Nuua1+2r4G+FHhm9VNK0vRr3xD4tWOKOTzY2TyrWDdjdEyytHK33f9bFUSj73KB8s/wDBWz9l9ry0tvjb4f05Rd2/laf4mhiVPni+7b3bf7SfLE33vlaL+FGr8sK/pz8SeH9P8ZeHNW0DVbZb7StUtpbK8t2+7LFKmx0/75av5yvj18Kb74G/GHxb4GvmaWXRL54IpX+9PA3z28v/AAOJ0b/gdergqvNHkIkftD/wTd+Ny/Gr9mbQ7a6uBJr3hlF0a7IJ3Msa7bd2+XbuMar/AHvu7j96vqW+1BNPjWR1Zgzbflr8af8Agkf8VrbwX8d9S8O3xYQeILEQQOekUvmpt/h/j/dLX7PPGknDIrD/AGlzXnVo8lWUSzkvib8RtI+E3w98R+MtemZNI0WykvJwhUSSbFyIo97KrSO2EVdw3M6rX80CJsXbX7ef8Fb/ABNPoX7IN7YwNtXWtasbCVcdVV2uP/QoFr8TNP0+bVdQt7Gzj866upVt4F/vuzbVr0cDHljKZEj9n/8Agk58H4vAP7Nw8WTwZ1fxpfNeO7IyslrAzQW6c/8AbWRf9mWvuWvm745/A/xlY/s06V4V+DninUPDHifwhZ276UtoyRf2otvFs+yy7vl/e/8AfO/Zu+WvzG8O/wDBTz9ov4f6wLbXNZstdezdoLjS9d0eKJkdflZH8pYpVdf96uH2c8RKUojP3Kor86vg1/wWI8B+KGjsfiPoF74Ju/4tT0/ff2TfIMsyqvmp/u7Zf96vur4f/Erwv8TdBXWfCfiDTfEOls2wXWm3SXCK3Hytt+63+zWMqc4/EUdXRRRUAFFFFABRXmHjr48eEvA/w18ZeNBqUGr6V4V8+LUotKnjlliuYPle1+9tWXftXY237wr86P26P2/fCPxU+GPgS5+EHjbXdI8W2etLqU9rHBPZTWqeRKv72X/VM25/uozL8z1dOnKcgPDvjN+3v8W9Qsdf+HuifEe51Hwba6hc2tn4jhg8jU9Rs1l/debcbVb7m35kVXb+L71fJKRl3VVTe7fdX+9Xsvh34V+N/wBpHxbqviOz0e00221a8lurzU9v2WwWVm3S+Uv8Xzbvki3bd38K16tqN18Pf2Q7d7awji8ZfEvy9/2q6i/dWe5flbb/AMsv91W81v4mVWr6ClGMI+6clStGMuWPvSOG+Hv7I+s6pp66x481W38A6Bv+Z9QlSK4b/gMrKsX/AAL5v9mvf/C1x8Avgnapc6bq/h5723+b+0PtK6lfM/8AeRk3bf8AgCLXifgz4S/ET9qPUl8T+LtZnstC3bILu4XduX+5a2/yqqf7Xyr977zbq+mfAn7OvgH4e+VLY6DHqN/H/wAxDVdl1Lu/vLu+VW/3VWtzyMTVVuWrL/wE5Wb9pbUPFUgj+H/w913xYn3F1K7i+y2W7/e+b5f991rU8M6L8a9d1ax1DxF4k0fwvpsciyy6JptjFePIv8SM7f30+X5ZW/vV7B/Ci/3fu0VZ5n1iH2IhRR96uQvvjD4G066e2ufGGhxXCtsZf7Qi+X/x+g5ownP4Tr6ZNDFc+V5sSzeU2+Leu/Y399P7tc1Y/E/wbqLbbbxd4elf+4uqwb//AEOultnW8i82BluYv78Lb0/8doDlnA89+L/wL8O/GWwt01XzrDU7VHS21O1/1sSf3HT+Jf8AZ/7527nr5L+In7GfjTwgktzoe3xZYJ/z4xbLtf8Ath/F/wAAZq++aKDso4yrS+E/MPw78PxceF/FPiDWbe5stM0eD7PBv/dfaNSldEit/m/iVWeVl/uxfw7q0dD+P3jfQPgj4h+FFtq6r4I1u+iv7mxeJGfzV2ttWX7yozJEzL/0y/h3Pu/QH4j/AAs8NfFLSUsfEti14kTM8EsUrRSwM333Vv8A4vdXxd8bv2T9Z+GcMutaLNJ4g8NRJunlSLbcWa/9NUX7y/7a/wDAtlZyh/Me3hsbGt8R93/8Ey/i74a+E/7EvjzxF4k1FbfTfDuvXVxcpv8An2tb2/lRojfxSv8AKq/xM1dV/wAEw1vvivJ8XPjp4gUjX/F/iFrOPcrHyLaBUl8qJ/4ov3qR/wDbvX49Lq13DpM2krdzJptxOl1LarK3lSSojokrJ91mVZZVVv8Aaf8AvV+nv7N/7WXhn4BfsXeAPB/hC8h8WfGTxH9qi0jwxat5uy8nvZkie4/hiVcp8rsrN/u/Ovj4ijy80v5j1T9P6/LH/gs18G0juPBHxOsbVvMk36Hqcyfdb/lra/8Atwv/AHzX6XeDNN1TQ/COh6drOoNrWsWtjBb32p7dn2qdUVZZtv8ADvbc1fPX/BSrwmPFf7GPj9BBHNdaalrqUDuv+qaK6iZ2X/tl5q/8CrkoS5KkSj8aP2ZvHc/w1+PngjxHAkby2upxLsm+42/5F3f997v+A1/R9X8udrdy2FxDcwNslgZJUf8A21+av6XfhLdwat8K/Bt3b/8AHvPo1lLH/utAhFdeNj7/ADERPgn/AILU69cW3wz+GmhCX/RL3V7q9kiKqdzwQbVb/wAmH/76r89f2P8Awm/jj9qH4XaQI/Ojk1+1uJ4tu7fFA/nv/wCORPX3T/wW8/1fwY/3ta/9Bsq+Uv8Agmlp7ah+2x8OArbRA1/P/wB82VxW1H3cMH2j98a/K7/gob+wX8RviB8XJfiB4AtNQ8Z2WqQf6dp82oK1xp0qnpAsrr+4YY2ou7a2/wDh21+qNZmq6emraZd2bySwpcwNEzxNsddy7fkb+Fq86nUlSlzRLP5i7yzn028uLO5iaG6t5Gilib76svyuldt8L2+IOiak+s/Dy+1ix1eH5Hbw/eNFe7f+uUT+ay/8B21yOuaLdeGtc1HR72LyL3Tp5bOdP7ssTbW/8eWqOfmVv4l+61fQfHAxkfor8A/+Cu3ivwrIml/F/Qv+Epso/lbWNJiS11KL+95kXyxS/wAH/PL/AIFX6L/Bv9qX4Y/HzTTP4G8V2eq3e0mTTHbyL2L/AHoH2v8A8C+7/tV+GfhX49QtGtj8QfC2l+P7DZs+2XsflalGv+zdL87f8C+b/aWpPidD8F7jQxqPgi+8SaVrrTK8WlXFsssMX+/Lv3L/ALLK0v3Pu/NurgqYSMvhJ9pKMuWUT+ij2ryX41/tDeAP2efDN3qXjLxBb6UIrdri101JVa9veflSCD7zfN8v91f4tq1+NXwMs/jb8X7cS23xP8WeH/Ctu3lS3ra3ePvb+5FF5vzv/wB8rX0d4Q/Z38EeE7p9Qn09vE+uyvvn1jxA3224lb+/83yr/wB8b/8AbqI4GX8xzVsbSo+6fHPhvwR8Svjnr3iLUNFsb3T9G8RX0t7fTTTPBYSbpWl+Z/8AlrsZv4VZq+jvhX+xf4V8JLb33idl8Vawvztbv8unxN/u/el/4F/3xX0U8M7t80Uj/wDAaY8LQ/eVk/31r1YwPBr5hVq/D7pFDCsNvFBEqwxRLsihRdiKv9xErxu8/ZX8I6x8TNV8Yau1xqq3k/2r+x5Rst1l/jd/4pV3/Nt+X/a3V7PXnHir9oTwN4P1q70m81Wa51S1bbPaafYyzvG39xmVdv8A49WhzUpVf+XR6JDCsMSRRKsMUSqioi7EVV+4iU+uV+HHxBs/ibps+p2Ol6tpemLP5EVxq1skD3X994k3v8qf3v8A4h68o1iw/aH8ZX08VveaH4H012ZF8qSKeXy/4PnRZW3f7u3/AIDQEaXPLln7p79czRWdnLeXMq21pF88txM2xF/33rz9/i5B4jnltPA2jXfjK4ifY2oRfuNKgb/bum+Vv92JGrn/AAr+zTpEM0V/431fUfiHrS/Or6xO72sTf7MG/wD9C3f7lewQwxW1vFBBEsNvEuyKGFdiKv8AcRP4aDSXsqf9488n+FV744s9vj/XZ9Xib520LRHew0pf9hv+W8/++zf8BrrtF8I6F4d09bDS9GsNOs1/5d7e2VV/4H/frk/jt4j8deFvBf2vwHosesags+y5/cNPLbxbPvxRL975v97b/d/ufE+oftWfFjUH/e+LpoWX/n3s7W3/APQIlqDop4epiI+7M+/9S8CeGNXXbf8AhrR75f7txp1u3/oSVzX/AAz78PftQuYfDFvY3Y/5eNNurizf/wAhSrXx54e/bK+JWisn2nUrLXol/g1CxT/0KLY1eweDf279KvJYoPE/hq7012+T7RpMv2hN3/XJtrf+PtQXLCYmj8J9G+HPC0HhaO4jg1DVr+KVkbZq2oS3nlf7C+a7bVqJfEFxceO7jQoII/slnpkV/c3Dt86vLKyxRIn+5BK//AEqv4K+JPhj4gW7S+H9ZtNRZf8AWW6tsuI/96JvmX/vmsXwEwvPiJ8TryT+HULOyX/ZWKyi/wDZpW/77qzg5Ze/znf0fcbctFFBznzt8aP2PtF8cTTap4Ra28Oa225p7WVW+xXLf3/l/wBU3+4u3/ZX71fKz2/jr9mv4jWN7EJPDniqwVprG6eKOVPnR4jLEzBlb7zbX/hb+6y1+l81zFC0Xmyxp5reVFvbZvb+4n+1XiN38M/DXxS1TVdJXULTXfB1vatFc3S6rLe6nYasrfPcK7blVXi+VlT903lfd+SsJ/ynu4bGzj8fwn6u+AfDFx4P8FaBoN5q99rt1ptlFaz6tqcrS3F46ptaWV2+8zN81cx+05oj+I/2c/ilpdvEs9xeeF9Uiijb+KT7LLt/8e21wf7InxYPiz4f6Z4L8R+Io9R+JPhuDyNVilbbPPEj7YrtR/y1jeLyv3v95tr/AD7lr2rxxpS694J8QaY0rRfbNPuLdpV/g3xMu6vnLcsz6CMuePNE/mRT5ov+A1/SB+y1cPdfsx/CKc/fl8IaQ5/Gyir+b+H/AFS/7tf0ffsn/wDJrfwe/wCxN0f/ANIoa9PHfBEInwf/AMFuLdpLf4Nz5/dJLq0T/wDAvsX/AMS1fJX/AATj1JNN/bT+Gcrz/Z0lubqDfu+9usrhFT/gbba+1f8AgtVpv2r4cfDi8VNz2uqXXz/3VaJP6qtfmv8As7+LB4D+PXw98RvK0cOm6/YXEvzbf3X2hPNT/vndToe9Q5Q+0f0lUUUV5BZ+D3/BTbwraeEP2uvE8Flp9vpdneWlnfRx2tskCMzxfvW2p99ml3sz/wB7dXgXhX/hBDpN03iX+3n1bzf3C6S0CW/lbf42l+bdur9Bf+CiX7cHiHwf8YNe+HXhPS9Dtn0y1t7e58R3enpdX+6WLzfKiaX5YlXzf7rNu/iWvzLr6DC80qXvGUo8x0niKDwl5aSeH7rXGlZvmt9UtYNiL/11SX5v++Frm67bwL8OZ/FVndaxfXkOg+GLCVEvtauU3JG33vKiX70s7fwxL/wLavz1l+KrjRNS1ryvDlhJYaSm23tUuG827n/6ay7fl81/7ifKv3f9puoiMvsn2F8Dv2nvhrpfgHQPDl9eSeGrvTbVIHW4tXe3ll/jdWi3fefe3z7fvV9CaFrum+ItMg1LS72HUbCf/V3VrLuVq+R/hH/wTF+OnxY0+LUJdFsvBOmyLvil8UTtBLL/ANsEV5V/4Gq1f8deCPiP/wAE6fGGlabq+paH4k0nxFG902mWs8u1vKdVZvnVGil/uv8AMrf7W2s41o83LzHm18u5/fpnuU3wA8ETSTM1jqKJKzO0S65fqrM3+z5tdP4N8B+H/h9Yy2Ph/TY9Nt5W3y7Gd3lb/bZnZmrzrwN+1l8OvGcapc6q3hm9bb/omsJtTd/sSp8v/fe2vSPEXi7SvDXhSfxJdyyXOixx+a1xp8f2oMu/ZvXb95K19w8SqsR8EjdoT9y26L5H/vpXP+DfiB4d+Ils83hvXLTWlRd7Jbt+9iT/AGom2sv/AAJa6CqOaUHD4gd2dtzNveiiigkKKKKACvk/4+fsi6hr2vX3iLwMIJmvWe4vNHuZPKfzfvM8Dt8vzfP8j7dv8P3tifWFFBvQryw8uaJ+TFzoGrWGsPpFzpl3baoj+V9hlgdbjf8A3Nn3q+sf2Vfgd498GeIk8Qak0fhnTZU2T6fd2yy3d4v9zb96Dv8ANuVvk+7X1r/y183/AJbbdu/+Pb/cpaD0K2YSqx5VExdS8L+H7zUYNe1DS9N/tKxb7RHqbWypcR7E+/5v3tv3v9ivOv2bvE6+PNJ8b+JI/wDj31DxRdNAn9yJbe3WL/x3bWh+05rF3onwJ8YT2TtHLJBFas6/88pZUil/8dZq8g/Ym8XroOmz+E9VjFl/bUjaposzfcvf+WVxErf3l8pPl+99/wD2agmFNzoSke4/ETxTJ4Z8X/DiLz2htdW1ptNnhT/lr5tuyRb/APtq613teJ/tReB/EXizw7oGs+Fla71Lw7d/2kunoPnn+586J/EybPu/xb32V1Xwd+Nug/GXR0n0+RbPWo4t99o7t+9gb+N0/vRf7X/fe2rMJUv3UZxOg8ZeC7bxcumy/wBoXukarpc7XWn6npsm2WCVl2v97crK6/Kystcr4T+FPhP4Q+DvEsdzqsn2TWfNbVdV1a5WLduR1/2VX77/APAn/wByqP7US+J1+Ed7deE7m6t72zuY7q5bT5XW48hd+7Yyf76O3+yleB/A7VdI+OPii11r49ePLh/AvhpovK0GI773W7l/9Va29vAu5t//AC1l27tuxdy7ty4TlGHvnZhsPLEQ+L3T1TUfC/ifx1rHw38VfBa0l0e08IyxWifEbWLldL0zy1dIki8+fa10m/dvVFbdvdVRtzV+s3xE1C80n4X+J7+Jo4b630e6uFZfmRZVgZv++dwr4c174U/Ef9t34i/DqDX/AIaS/C39nzwnN9qg0nVmjt73UUTaiRNaq37pdqKqrsVUR5drv8lfVv7YGrQeGf2U/ivcyrti/wCEXv7VFX+/LbvEn/jzrXiVKntZRPoKdP2UeWJ/OtD/AKpf92v6Pv2T/wDk1v4O/wDYm6P/AOkUNfzg/cj/AOA1/SP+zXp7aX+zp8KrB+HtvCmlwn/gFpEtdGO2jEuJ4r/wU+8B3Xjr9j/xa9jDLdXWhyQax5UMPmM0cUm2U9flVInldm/uoa/CJ13Ky1/TB8YPCcnjz4S+NPDUSebNrOi3unKu7buaaB4v/Zq/mlurWWxuJbaZNlxA7RSJ/dZfv1eBl9gJH9G/7NPxTT41fAXwL4y8xZpdW0yJ7p1+79qT91cL/wB/Ulr02SZYY2llZURV3Mzfw1+bn/BHD44LqnhHxP8ACrUJ83ujytrOmIzctayttnRV/wBiXa3/AG8V7P8A8FM/j5J8Ff2cLyw03eNa8Xs+h20n8EETp/pEv/frcq/7Uqt/DXDKnL2vsyz8v/2zPit8MvjZ8YvE3jXwNbeIEm1aeJp21hYIoH8uLymeJF3PtfYrfOyt9/8A3VybX4O+HvhFpset/Fa7D6hNF5tn4G0+f/Tp/wC59qf/AJd4v/Hv+BLtryTwbZaxqHibTLPw9plzretvOrWen2tp9saeVfmVfK2t5v8Au7a/Rv8AZr/4Jh+JfiNrj+Pv2gby8tWupRL/AMI/52b2+/6+pVb91HtG3yk+fb/FFtr1ZTjh4cpzyjKR82/C34FfFP8Abn8VafFoek23hzwLpP8AokV15Dx6PpMXDOsX/PWds7nVPmZnXfsT7n6qfsz/ALC/ww/Zhggv9M08a74tRf3nibWdslwvy/N5C/dgXlvu/Ntb5nevffDvh3SvCeiWWk6Lplto+m2cXlW1jYwLFFAn91FX5VrZryqmIlVNYxjH4Qr89vHn/BNXXv2jfiZ4z8efF3x9La3l9LNBoWmeG4/NisLVX22u95V+ZdvzNEiruZ2bfuZq/QmisYylD4Sz8V/2mf8AgmD4l+A3wrXxd4f1m4+IK2c8ra1b2uneQ9ra8bLhIt7syp8/m/3d6tt2I7V8feBfiN4m+HepDUPDev3mi3H3m+zv8kv+8n3W/wCBV/TTX55ftYf8EtfB/jaw8R+LPhhaN4e8XyxK1t4cilig0q5l3jfsRl/dMyF9qqypu2/d+au+hi/s1SJR5j857Dxv4F8fapDdeJra78AeJR9zxB4Uj/0Rpf8AnrNa/eVv9qB/m/uV6xY2fxu8PaSmr+BviBb/ABN8Of8ATu63Uv8AuPFL8yP/ALKNur5i8ceB9d+HniC60LxPpN3outWrbZ7K+t3ilXgbflf+Fl+ZW/ir1P4Ra9c/Bb4b6949W8a01bWE/sbQLPariWRGR7i6ZG+XbEu1V3K253r1vQ4qlP3fdPU9F/bc1Pw/frpvxB8Dz6bdJ/rWsd8Eqf8AbvP/APFV7B4V/aY+Gvi1U8jxTaabK3/LvrH+hOv/AANvl/8AH68N8N/tfeF/HFimkfFXwnaX6K3y31papPF/veU/zRf7yN/wCuoh/Zx+DfxpsZ7vwTqU9g8fyyHTJWdI2bhPNgn+Zf8Ax2rPNqUqUf4seU+idF8SaR4mgln0bVdP1i3ibbLLp91FcIrf7bK71oV8YXf7GnxA8B6t/aHgzxVDNPF/q5oZZdNu2/2f4l/8fqX/AITL9pvwAyLqOkXut26/wNpkF+jf9tYPm/8AH6s5PqcZfw6p9lUV80/Cn9sRvE/inSfCvivw6dC1S/uFtVvbdm8nzHbaitAy7l+f+Lc3+7XRyftdeFtH8WXvh/xPpureGb21naBpLqBbhE/2n8r5vm+98iN96jmOaWGqxly8p7nRVTS9Ustc0y1v9Nu4b6wuo/NguLdtyyrVug5SvqWm22saddaffW0d5ZXUTW89vMvySq330avBtc/ZLtrfw/qWleFvEU1hp91L9qi0/WIPtUVrdfwy28q7ZYG+RV3fNvVV37tq19A1j+KfGGieB9LbUPEGq2mkWv8Aeupdu/8A3E+87f7lB0UqlWOkDzvQfF/xO8IafFbeMPBUnilrdNraz4XuYriW4X+81q21mf8A3dn+7XDfE3T/AIR+LNWtdZ1y28UeAfEtxP8AuNQh0i8s7iWf+D5fKdWl3/3Pm/2q0bX49eJfjx8RtN+G/wAE9Pjn1nUmZG13VYtsUES/M8vlN92JF+be6szfdWLdt3ea/Gr4K3WuftkaX8HNA8X6z4x1RJrHS7zxBq1yH/0x0SW6liVW/dRRK7fuvmZfKZfmrilVjH3T3KGHqT96fun0j8EPhj8W/ildpp/hnVPENr4YRPKk8b+ONHjtUj5+/ZwbVnvJfvfNK/lLsbd/DX3L8E/2Tfhx8BGmvvDmgJP4mnZ2u/E2qbbjUrl2++3m/wDLPd/ciVF/2a9fs7IWlpBbrLJKsSqnmStudtv96r1ePUrSqnqU6MaXwhXxl/wVW8f23g/9kLW9Im3fbvFGo2el2pRv7sq3ErN/s7Ld1/4GtfZtfjV/wVy+OEXjr41aV8PtPkV7DwbA7Xjq/wB++uVR2T+6dkSxf8CeVajDx56p0SPiTwT4PvvHnjTQPDGnxedf6zqEFhBEXVMyyy+Ui7mr+nCv5/f+Ce3gWb4gftffDqCErs0u8/tmdn/uwL5v/odf0CbRXXjZe+kJbCCv58v27vhvJ8L/ANqjx/pv2GKwtb++k1Wzih27Finfem3b93+L5a/oO7V+Z/8AwWI+B/8AaHhXQ/ilZCFJNPnXSr+JYgrOsu7bKz/xfdRP9n/0HLC1OSqEj89f2Zfjde/s9/HLw145tEkmt7GfZfWsf/Lezl+WeL/e2t8v+0q1+0nx9/Zp8H/tuaD4A1PVPFOsQeDbaN9UtbfQbhYodUWeKJoZW3o33UVtvy7tsr/dr8Bq/Ur/AIJPftYolqPgj4mu9sieZdeF7iZflZTueWz3f3vvyp9ZV42otdmLpS/ixJiffPwl/Z7+HPwLsfsngbwjp/h7cuya6ij33U69f3k7bpX/AOBNXpVFFeQWFFFFABRRRQAUUUUAeA/tX/sr+GP2pfhzc6LrEUFjr9qvmaP4hjgV7ixl/uf3mib+OL+L/eVGr8e/ib+wT8d/hxrtxpVz4F1TxPBaxM0GoeG4mv7WSPc33dnzL82/5GVW/wBn5q/oCr5C/bN8UfFnxhJafBr4K6VqC6/qlst1rninf9ltdLsXd1SL7R/DLLsf7nzqqfKvz/L0Ua8oe6SfiHplnb3mqW9tqN7/AGVA0uye7liaXyF/j+VfmZv9n/0GvR/ih8az4ksLfw54R00eDfBdmw8rT7R9s14y/L5t06/62X/Pzfer6a+Ln/BI74i+BPAsWs+F9asfHeq29sJdQ0e3t3tbhW/iFruf9/8A8C2O38Kbvlr4X1DTbzSby6tbyzms7q1k8ie3uImR4pf7jK33W+Vq9unUhV+ExlTjKXNI7fwh+0F8Q/BaJFpfim/+yJ9y0vW+1W6f7qS7tv8AwGva/B/7eWo27eX4q8N2l8ucfaNKlaB/++W3q3/fS18oUV1GFTD06vxRPuiT9unwFc7JZ9E8QvKv3N1tbts/3W82us8YftEeDtF+HvhrxhfaRe31l4gaVLO1eCD7R+6+R9+5tuz/AL6+/X5116f8YNalh0DwH4JaU7vDWlb7lW/hurx/tEqf8BRokb/aV6DCWCp80eU+h0/bw8IWcCxWfhHVkiT5FiRoIkX/AL5rn9e/b8mfeuh+DI4T/BLqd88v/jqqn/oVfJNd98J/gR4++O2ttpvgfwtf+IJ43UTzQJtgtt33fNnb5Yv+BNWcvc+Mr6hQ/lOx8U/th/ErxJE8cWpW3h+Fv+Wej23lOv8Auytudf8AvuqXwb+Guu/GP9oj4e+H/EsOqag3ibULWaaXUBK0tzYb90sqs3zMvlRS/P8A7LV+lP7JH/BL3w18IRa+KPibHa+M/F6vug0tE36ZYN/Cdrf6+T/af5V3fd+XfX2BqXwg8I6x8XNG+I99pcdx4t0nT5tMsb5ufKglc7tq/wB752Xd/dlf+9Xl1MXH4YHXToxh8MTzE/BX4Qfsq6l8QfjXpGj23h4DQmS+srNEgso44fnZIIlT928rJErKvysyJ8u7du/O3/gmLZ3fxl/bf1bx1rzfadSs7HUfEM0uz5Xup5Ui/wDbqXb/ALlfSH/BWv4geItS8O+CvhD4W03UtRvfFFw1/fWum2zzzTxQOqxQKi/f3Stu/wC2SV0//BNb9j7xb+zboPifxB44t4dP8ReIvIih06GRZpbK1i3tiVk+Xc7P91d33E/2lrlhaFKUpfFI3PuuiiiuQo8t/aI+NGl/s9/CHxD431fa8WmQf6NatJs+03LfLFAv+8+3/dXc38NfzteKvEmpeNfEur+ItZuWu9U1a7lvby4b/lpLK+52/wDHq+yv+Cmf7XVp8ePiFb+CvDV6t74H8MTP/pEEm6LUL/lGlX++iLujVv8Aalb5lda+Io4ZZpUiiVppWbYqJ/E1e1hKXJHnkRI/Sv8A4I3fCf7Z4m8Y/EG5hjaKxiTTbNyzLIsj7i7J/Cy43r83+zX6xV47+y78C7H9nP4KeG/BNsFa9s4Ul1O4hlZ0uL5kX7Q6blX5N/C/KPlC/wAVexV5VWXPLmLCuN+LHw9034s/DvxB4P1ePzNO1mze0l77dw+Vxhl5VtrfhXZUVkB/Mx8TfAOp/Cv4ga/4R1uPy9S0e7azlXpu2t1/4Eu1/wDgVYul6te6Bqljqen3MlhqFnOlxa3UDbHilVt6Orf3lav1A/4Ku/sn6lrd1H8Y/DOmXmqTQw+Vr0EEfmCC3ii+SY7Ru2KqfM38I3fN90D8sK+joVPbUtSD94P2F/20NI/ao8Em0vWGn/ETR4Il1jTyVX7Un3ftluP+ebt95f8Alkzbf4kZ/q2v5nfhn8SPEHwi8c6P4x8LXrWOvaTP59vMp+Rv76P/AHlddysv8StX7jfsc/treGv2rvDckSCPQvG+nRB9S8PNNvbb937RA2P3kXK/7SM21v4WfysRh/Ze9H4QPpyiiiuEsKKKKACiiigAooooAK8e/aA/Zr8E/tFeCL/w74q07yftU0V0up6ftiu4riJHSKXdj59iSyrtfcu12r2GsfXNIh17Sb7T7nzfIvIHgk8qVon2su1trp8ytz95aI6AfzveM/gjqX/CxfG+ifDe11n4leHvDV21u+vaJpktxF5a/wAb+VuVU+R/n3bW2bl+WvK3+RnVk2OvyMj/AMNf0tfDv4b+G/hX4RtfDXhPRrXw/otmoEdnZptXP99v4ndv4mb5mrlPHH7Lnwj+JHiCXWfEfw38Pavq8x/f31xp6edL/vsv3m/3q9GGN/mI5T+dm1mNrdRT+XHN5TK+yVdyNt/hatfTtD8S/EzxRNBpWm6p4q8QX07XD2+n20t1cTyt8zNsRd396v2q8Sf8Ex/gZrXirwxqFt4f/sXR9ImuJb3R7SWXZqrS7NiSys+/ajL91f7+2vqHwj4A8OfD/TF07wtoWl+HLBf+XTSrOK1i/wC+UWtpY6P2Ihyn4jL+w34sutR+Dvw8uNFk0L4g+LrnUb/U5Lj5/wCzNJTyEiMqq+35fKupf4WbzUT71fsz8Ifg/wCGfgX4G0nwn4Xsls9K08ZDYzLdSnhp5W/jlb+Jv/QV+WulXw9pr+I4tflsLRtXitnsotQaBftCQO6s8Sy/e2MyI23/AGVrdrzqlaVX4iwooorEAooooAK/PP8A4KV/tyWfw30PU/hP4L1Df4x1CDytV1C1df8AiV2z/fi/67uv/fCPu+9srf8A28P+Ch2nfAK3vfBHgWW31r4iTxMlzcb91vom7+J/70/92L+H7z/3X/GzU9Uuta1C4v765mvL66kaee4uJGllllZtzO7N952avRw2G5/ekRIpV9rf8Es/2fF+MX7QS+LdSg83w74F8rUmDNxJftn7Kn31YbXR5t3zf6hVb79fG+h6Hf8AifWLLSdKtJ9Q1S+njtbS0t03yzys21IlWv6Af2LP2abT9mL4LadoMkav4kvwl9rlxtXd9qZOYldR80cX3F+jN/HXTi6nLHkCJ9A0UUV4pYUUUUAFfgr+3V+xvrH7LPxEvtQsLIy/DXXbmRtF1CMO6We7c32CUtuZZUXO1mb96qb925ZVT96q4H4zfCLQPjl8NfEHgfxPHcvoesRLFMbWUxSxMrpJFKjYPzJIiONwZSV+ZWUlTvRqOlLmA/mtrpvA3jfW/ht4n0zxN4a1K40TWtLn8+2vbRtrxN/7Mv8ACyt8rK21q2vjZ8FfFn7Pvj+/8G+MbBbLVbUbo5I8tb3kH/LK4gk/5aRvsb/dZWVtrKyr5/X0XuVoGR+yf7HH/BTPw78XotP8JfEmez8LeOpMW8OosfK0/U2x8vzN/qJW/uN8rN9z72yvvqv5cq+wP2XP+CkXxA/Z5a10HW2k8e+CoVWKKyvp9t1Zr/07z/N8v/TJ9y/J8uyvLr4L7VMrmP3NorxP4A/tXfDH9pDTUk8H+I4Z9S8vzZ9BvtsGoQf3t8GfmX5vvpuT/ar2yvK5eUsKKKKACiiigAooooAKKKKACiiigAooooAKKK+Z/wBpL9vj4Yfs4wXVle6oviPxbESi+HNFlWW4V/7s7fdg/wCB/Pz8qtVRjKfwgfQ2p6hbaRZ3F3eTR21rBG0stxK2xI1X5mZn/hXivzI/bK/4Ko7P7R8FfBK6V/vQXvjUr93++tkv/jvnt/wD+GWvkH9p39uL4lftQXL2es3a6J4SWXzYPDOmvtt/9h5X+9O3+98v91Vr55r1aGD+1VI5i1fX0+oXUtzdTyXM87vLJLK+95Gb77M38TVVor6c/Yt/Y58RftTeOILiWynj+Hel3iRazrAZYt//AC0aCL+9Lt2btu7ZvXd95a9KUo0Y80iT6Q/4JLfsqRa7q118Y/E+nxzWunsbXw/b3CllNxxvuuG6ovyruX/lqzfwqa/WOsnwx4X0nwXoNlomiWMOm6VYxiKC1t12pGvoK1q+bq1JVZc0jUWiiisgCiiigAooooA+X/23v2O9C/aq+H08kMCWPxA0m2dtF1URjdLj5vssp/iic9P+ebNvH8St+FPijwrq/gnxFfaHr+nz6Vq1hK0VzY3abXRl/gZf/Zq/p1NfNv7WP7E3gz9qrw+G1Dy/Dni+Bt1r4ls7VHlH8OydPl8+Pbj5WbK7flb727uw2J9l7svhJ5T8AqK9F+OXwN8Xfs9+Pr/wn400ptP1GNt1vcRkta3kWfllgfHzx+/3l+621lZa86r3ozU/gILmmateaDqVpqGnXk1hqFrIssF3aStFLEy/dZGX5kavsb4K/wDBVb4xfC8QWXieW2+I+irtXZqv7i9Vf9m6Vfm/3pVkr4torGVKE/iA/cj4T/8ABUr4HfEa3hg1bWrnwLqrPsa316Blh3f7NxFui2/77LX1V4a8SaV4t0i31XQ9Vstb0y4+aK90+5S4ik/3XX5a/mNrb8JeN/EfgG/N94Y8Qat4bvT/AMvGj30trL/31Ey1wSwP8hXMf05UV+CvgD/gpd+0F4B8iL/hNV8R2ke3/R/EFpFdbv8Ael+WX/x+vb/Df/BaP4iWf/Iw+AfDOq/N/wAwyeey+X/gby1ySwlUOY/XuivzM0X/AILXaFNu/tb4XanZfL8rafqsVxub/gUSV1el/wDBZ74VzR51PwX4ztJd2FW1is50/wC+muErP6vV/lLP0Ior88dS/wCC0XwyhkUaf4F8X3MQ+8139lgZf+ArK9clr3/BbLTUaVND+FN7cp/yym1DWki/76RYn/8AQqccPVl9kD9O6K/HPxH/AMFmPihdz7dD8GeE9LtmXZsvVur11/75liX/AMdrwnx5/wAFCP2gvHyvFefEq/0i3Y/6rw+qabs/4HEqy/8Aj1axwlWRHMfup46+Jnhb4W6SNT8WeItM8M6fvx9o1a8S3Rv9ld33m/2Vr5A+MX/BW34ReA45bXwbBqfxE1Rf+fVWsbJW3fNvnlTd/wB8RMtfjbreuan4m1Ka/wBX1G81i/l+/d307XEr/wDAm+aqNdMcDH7Ycx9TfHT/AIKM/Gf41rcWX/CQL4N8PzrtGmeGd1vuXH8Vx/rW/wBpd6r/ALNfLNFFelClGHwkhRRX0P8Asq/sb+Mf2pvE8aabbtpfhe1w99rkwKxKq/dSJv43b/x3H+ztpylGEeaQGT+yj+y34g/ao+JEPh3RyunaRAPP1XWZRhLWBeGCr/y1dt6YT3/hX5q/eH4QfCHwv8DfAWmeEvB+mLp2j2Q4wP3s8n8csrdXdj1b/wBlrN+BfwI8L/s7+BbLwv4WsljhjVftN2y/vbl/77/5/Xc1en187XryqyNRaKKK5wCiiigAooooAKKKKACiiigDzv4yfBjwn8ffAt/4P8aaWupaRcjerA7JbaZfuTwv/DIufve7Kdysy1+NX7WH/BO3x9+zW9zrmmJL4y8Axbf+J3axbZ7bcT8txBuZk+b/AJarlPu/dZtlfuzVK8sbfUrWa2uYY7i2mRo5IpV3Kyt95WWtadaVJ+6B/L5RX7dfH/8A4JZ/Cr4vXV7q3h5rj4feIroFjLpkSz2LOX3M72rf7OVAieL+H8fy+/aK/Yx+Jv7NWpOPE+kC80L5TF4i0hXuLCVmXds3sisrja/yuP4f7vzV7dPFU6u5J4NRRRXaQFFFFABRRRQAUUUUAFFFFMAoop8MbzSrFErPKzbVRF3O1IBlaGi6HqHiXWLTSdJsbnVNTvJUitrGygaWWeRvurFEv3q+s/2dv+CZfxY+NhsdU1q1XwF4Vm2y/bdWi/0uVPk/1Vv99vkbcu/Yvy1+pn7N/wCxh8NP2Z9LtT4e0dL7xL5ax3PibUE829nc7txQ9IFw7Lsi2jbjduxurzKuLjH4SuU+F/2Tv+CTupeI47bxN8ZhNodn8str4YtGX7TcKyfeuH+7F/D+75b727bX6peGPC+leDNBs9E0Sxh03SrOPyoLS3XaiL6Ctag15NSrKrK8ixaKKKzAKKKKACiiigAooooAKKKKACiiigAooooAKSlooA+ZPi9/wT2+BXxfinkvfBNv4Y1V41jj1TwuP7Oljw27dsT9y7fw7pY2P/juPi34uf8ABGnxLpM1xc/DbxpYa7bbp5Y9M1+JrO4SPrFCJYtySu2CpZlgX8/l/WsZp1awrVafwyA/nV+I37HPxo+FP2h/EXw21uG3t8ebfWcP221Xd9397BvRfvL95q8cu7WexuGguoJLa4X78Uy7W/8AHq/qMbpXMa78OfCniZ5H1rwvo2ryS8O99p8M5f8A3ty812Rxs/tC5T+Zeiv6FLr9g34AXjbp/hdokrerCT/4usaT/gnF+zkzb/8AhWFiG9Vv7xf5TVt9ej/KTyn4CUb0/vV+/wDB/wAE8v2dNL+dPhbpbN/02nuJf/Qpa6jwx+x38E/BdxJd6T8MvDsDNHg+baCcY/3JNy59+tH9oL+UOU/nl0vQdT119ml6Zeak/wDctIHl/wDQa+hPgp+wD8ZvjlMTo/h6HRtKRtsmr69ci3t422b9m1d0rHp92NvvLu21+7em+A/DOk3Ud1p3h3SbK6i4jnt7KKJ04xwyrkV0Waxljqn2SrH5d/Cb/gi/FbmO5+JfjprlNzeZpfhqLaGXb8p+1Sru+9/D5XavuD4N/sn/AAq+Apgm8HeDrHT9USNU/teZfPvnwmxm819zLu3Nu27Qdx4r2aiuOVWc/iGFFFFZAFFFFABRRRQAUUUUAFFFVri6W3TcwJG7b8tAH//Z;imageAspect=0;" vertex="1" parent="1">
          <mxGeometry x="770" y="130" width="80" height="70" as="geometry" />
        </mxCell>
        <mxCell id="A_uLEfL_Cp8y6BZKQuvn-11" value="FVTR" style="shape=datastore;whiteSpace=wrap;html=1;" vertex="1" parent="1">
          <mxGeometry x="780" y="250" width="60" height="60" as="geometry" />
        </mxCell>
        <mxCell id="A_uLEfL_Cp8y6BZKQuvn-12" value="" style="endArrow=classic;html=1;" edge="1" parent="1" source="A_uLEfL_Cp8y6BZKQuvn-10" target="A_uLEfL_Cp8y6BZKQuvn-11">
          <mxGeometry width="50" height="50" relative="1" as="geometry">
            <mxPoint x="700" y="410" as="sourcePoint" />
            <mxPoint x="750" y="360" as="targetPoint" />
          </mxGeometry>
        </mxCell>
        <mxCell id="A_uLEfL_Cp8y6BZKQuvn-13" value="" style="shape=actor;whiteSpace=wrap;html=1;fillColor=#ffe6cc;strokeColor=#d79b00;" vertex="1" parent="1">
          <mxGeometry x="730" y="20" width="40" height="60" as="geometry" />
        </mxCell>
        <mxCell id="A_uLEfL_Cp8y6BZKQuvn-14" value="" style="shape=actor;whiteSpace=wrap;html=1;fillColor=#dae8fc;strokeColor=#6c8ebf;" vertex="1" parent="1">
          <mxGeometry x="830" y="20" width="40" height="60" as="geometry" />
        </mxCell>
        <mxCell id="A_uLEfL_Cp8y6BZKQuvn-15" value="" style="endArrow=classic;html=1;entryX=0;entryY=0;entryDx=0;entryDy=0;" edge="1" parent="1" source="A_uLEfL_Cp8y6BZKQuvn-11" target="A_uLEfL_Cp8y6BZKQuvn-3">
          <mxGeometry width="50" height="50" relative="1" as="geometry">
            <mxPoint x="700" y="410" as="sourcePoint" />
            <mxPoint x="750" y="360" as="targetPoint" />
          </mxGeometry>
        </mxCell>
        <mxCell id="A_uLEfL_Cp8y6BZKQuvn-16" value="VERS Web Portal" style="label;whiteSpace=wrap;html=1;align=center;verticalAlign=bottom;spacingLeft=0;spacingBottom=4;imageAlign=center;imageVerticalAlign=top;image=img/clipart/Gear_128x128.png" vertex="1" parent="1">
          <mxGeometry x="900" y="240" width="120" height="80" as="geometry" />
        </mxCell>
        <mxCell id="A_uLEfL_Cp8y6BZKQuvn-17" value="" style="endArrow=classic;html=1;" edge="1" parent="1" source="A_uLEfL_Cp8y6BZKQuvn-16" target="A_uLEfL_Cp8y6BZKQuvn-11">
          <mxGeometry width="50" height="50" relative="1" as="geometry">
            <mxPoint x="700" y="410" as="sourcePoint" />
            <mxPoint x="750" y="360" as="targetPoint" />
          </mxGeometry>
        </mxCell>
        <mxCell id="A_uLEfL_Cp8y6BZKQuvn-18" value="" style="shape=actor;whiteSpace=wrap;html=1;fillColor=#ffe6cc;strokeColor=#d79b00;" vertex="1" parent="1">
          <mxGeometry x="910" y="90" width="40" height="60" as="geometry" />
        </mxCell>
        <mxCell id="A_uLEfL_Cp8y6BZKQuvn-19" value="" style="shape=actor;whiteSpace=wrap;html=1;fillColor=#dae8fc;strokeColor=#6c8ebf;" vertex="1" parent="1">
          <mxGeometry x="1000" y="80" width="40" height="60" as="geometry" />
        </mxCell>
        <mxCell id="A_uLEfL_Cp8y6BZKQuvn-20" value="" style="endArrow=classic;html=1;" edge="1" parent="1" source="A_uLEfL_Cp8y6BZKQuvn-2" target="A_uLEfL_Cp8y6BZKQuvn-16">
          <mxGeometry width="50" height="50" relative="1" as="geometry">
            <mxPoint x="700" y="410" as="sourcePoint" />
            <mxPoint x="750" y="360" as="targetPoint" />
          </mxGeometry>
        </mxCell>
        <mxCell id="A_uLEfL_Cp8y6BZKQuvn-24" value="SF Mgmt System" style="label;whiteSpace=wrap;html=1;align=center;verticalAlign=bottom;spacingLeft=0;spacingBottom=4;imageAlign=center;imageVerticalAlign=top;image=data:image/jpeg,/9j/4AAQSkZJRgABAQAAAQABAAD/2wCEAAoHCBIVFBcUFBUYFxcZGh0dGhoaGiIdHBwhHhocHRogGSEaICwjGiApIRkZJTYlKS0vMzMzGiM4PjgyPSwyMy8BCwsLDw4PHRISHTQpIiIyMjIyMi8yMjIyMjIyLzIyMjIyMjIyMjIyMjIyMjIyMjIyMjIyMjIyMjIyMjIyMjIyMv/AABEIAOIA3wMBIgACEQEDEQH/xAAcAAABBQEBAQAAAAAAAAAAAAAAAwQFBgcCAQj/xABIEAACAQIEAwUEBwUECQQDAAABAgMAEQQSITEFBkETIlFhcQcygZEUI0JSobHBM2JygtFTwtLwFiRDRIOSk6KyFVRj4TSz8f/EABgBAQEBAQEAAAAAAAAAAAAAAAACAQME/8QAJBEBAQACAgICAgIDAAAAAAAAAAECERIhMUEDUQQTcfAiMoH/2gAMAwEAAhEDEQA/AMZooooCiiigKKKKAor0CrfyxyFjMZZgvZxn/aPoCP3Ru3w8NxWyWst0qFql+E8t4zEm0MLuPvWsvxY6D4mtw5f9nGAw1iydtJ96QafBdvnerjHGAAAAANgBYD08KrjJ5TyvpinC/ZDiXF55Ui8l77fEDT8atOB9kuBT9o8sh9Qo+Vj+daKEroJWmrVSw/s/4Ym2HB9WY/3qkU5YwQAUQJlGw1IHpc1PZK9CU5VnFBHlvB2K9ioBFiAWFx4aGorEezvhb/7uF81Zh+ZIq4yZQCSQABck7AedMm4phgpfto8oNiQ4Iva9hbc21sKcq3iz3iPsnwJDMkskWhPesyj8tqpPEPZ1MqGaKVJIwSLnuMbG2gb+t62Z8VLN9WIHSMm7OzAZk6ZQDcEjp0HrTWHgch0chRlYd33NzlunU5WNzemts3p8743hU8RtJGy+Gh19PEUwr6rw/DY1j7NlDg+9nGbNte+a+mg08qqXMPsxwU92i+ok/d1T4qdvgfhS4z02Z/bAaKs3MnJeMwRJljLR9JF1Q/Hp8bVWrVFlipdvKKKKxoooooCiiigKKKKAooooCn/CeFTYmQRwoXY+H61I8q8sT42TJGLKPfc7KP19Ov5fQHLXLeHwUYjhXW3ec+8x8z0HlVzH3U3L1FY5R9mkGHCyYkCWXw3jU+h94+unl1rQkW21eolLKtbayQmqUqqV0q0plqdq0TCV6EpW1FZtpPJXuWu6j+JTMMsaHKz3GbwA1Yj9623rfpRiO4nCMSRHc9khDMQSBIde55qO6SbkdPTvDcNgj9yNRrfbrtfXY+dOkQAADQAAD0G1dV0k0i0UUUVrBRRRQcSIrAqwDKRYgi4I8CDvWa84+y+OTNLg7I+5iv3W/gJ90+R08xWm0UHyhjsFJC5jlRkZTYgixprX0tzdyjh8chDgJKB3JQNR4BvvL+I6V8/8wcCnwcrRTLYjY9GHQqeoqMsdeFzLaJoooqFCiiigKKKKAqf5U5clx0wjTRRq7dFHUn/OpqN4Tw6TESpDGLu5sBX0hyny5HgYFiTVjrI/Vm/oNh/91eM91OV9HXAeDQ4SJYolAUbnqx6lj1NSqrQq0ui0t2SPFWlVShVpSptULUUUVgKKKKAqsYuf6RM8LgxrGSBcWdyR70bWsFKkjQ3PlUtxLisUDRLIcolcqGJAAIUnW/TQD4iveLugifO6xjL77bIfsta+pB28xSFcKLaV7TB8SrxgCRo3OospN7HoHQ906dL2PSlOF4vtY1ktYm4I8CpKtv5g11lcrDiR7KT4An5ChHuL1zifcf8AhP5U1w2NUPHFY5nV3B6AK1j/AOVNh/RRRWgooooCoTmjluHHQmOQWYXyPbVD+o8R+tjU3RQfLfH+CzYSZoZVsV2PRh0IPUGoqvpLnnlVMdAVAAmQExt/dPkfwPxv86YnDtG7I4KspIIOhBBsajLH2vG7IUUUVChXoFeVaeQOAHGYtEP7Ne9J/CNx8dB8fKtk3WW6aX7J+VRDF9KkH1ko7n7qeP8AN+VvE1pCJXMSAAACwGgHQDypwq1dqYFWlVWhFpSotWKKKj+KcUjw6Z5DubKACSx6AW87C501FYJCmWK4jHHoSWb7iAs//KuoHmarBx08pbtsRh4FRQMolzHP9vOEddL30J8rG5pbC42IELHJI4AAtBAFUk31OYEW9LAVsYnf/VFtfJJ6ZCPztb42pEcXcsAuHkKkE580eUW/n1qD4lw2fEsoYskP2kdhmb1EWlvUmn+A4PHEbhnYjUAuxVdMuik22FtbmqmLLkQ4xwwYx0ZyFWLMLA5iWNr3voLWHjSPEOCu1gj5yy9mzyAF0Q3uEOgAszDQX13qforeMTyqOhg7NAZI+1kLHMyjNqdA31huotpYaD0p3hkyooy5bD3b3t1Iv1160tRW6ZshjmtHIfBG/wDE1XsE5OJgU2NoS22xzyAb3IuL7a1ZJkurDe4I+YrOcLNMHV4mtIikAMS17ORlZTbS7sd/61mV1VYzbRkcEkfaFrj/ADuPOlKaojOiNIMsgAJtuDbvDQkEeVzSkTnZrBvLY+Y/p/8A2qSWooooCiiigKyj2v8AKoI+nRLroJgPkr/kD8POtXpHE4dJEaNxmR1KsPEEWNB8mUVOc2cEbB4qSFr2Buh+8p1U/K3xuOlQdcrNV0l29Fb97J+B9hg+1Yd+bveeUXy/O5PxFYry5w5sRiYol3dgPTUa/Df4V9RYWBUVUUWVVCqPICw/Kqx6m05edHCLS6LXCCllrKqOqKbri4y5QOpcbqCLj1FdxSKwupBFyLg3FwSCNOoIIPmKlpWoLmPhyyIZA2WREbsydVubGxVgQxNvC9TtVzjMiTywxIQ/ZydpIVNwmQEANbS5Y7b6GtjKeYfDpGLIir/CoUee1K3oorq5vCaQGMjJyh1J10Bvta+19rj5jxpLjDsIJSouwjawvb7J69KoXCu3gk7ZiDnVGUKSbrazAqNNbqbAC5ba7qFm3VJjto4cefyP6ivcx8D+H9aSwWKWWNZE2Yf59R4HYixGhpeqCZz+A+J/+q8KSfeUei/1alb0XrRFcYwzdm7nESx5FLXTKALDwy6+hPWs44Ij4ed3cBSnZxlCzSKzsjEswPukqB3dgVPhV24rJi3ZI2EKqSWIzM2YJ3gG0Ghtt1sfOoLguGeebFxyG7Mw1I69m2U7nT5b2rll3elzwu8GNVrKdGYAr91gRfuNs3pofIC1LSxhhY/hoR5g9DVb4BiFsMPKAUcEoG6MpPaIb9b94ddb6EgCaTNG2QMZFClsp1cDYBT9vXTva+Zq5dxFhxHIRZX36N9718G8uvTwDim8bq63GoO4I/Ag6g+RoDlN9V8dyvr4jz6VqTiivAa9ooUUUUGa+2XgfaQJikHeiOV/NGOnybT+asQr6v4nglmikhf3ZEKnyuND8DY/CvlnH4dopHjYWZGKkeBBsRU5z2rCtA9i/Dc+LeUjSNDb+Ju6PwL/ACrdEFZr7FMFlwkktrF5Mt/JRf8AvmtNQVl9Q9lVFUvmXi05nlw6ydkkUfaXQ2eS4WyXPu6t08quyiqJzTh4JRNMjLfLGL5cxBSV0Iy7sSbCx8F8qmqS/KGATIMUBIHlQA9pl11uWXLqoY62v/WnUcLwSOkR7hs4Rz3bszZwh1K2IB2I7+3Wm/JUk30dEliMYUAIWJDNvm7rG4AsD030GlSfHSywvIgJdFLKAQL6ag3BFvH/ACayNppiuLu31MYCzne/fVFFszm1r72A0u3kDXvDsCsSFQzOSSzO5uzMdyfD0FKYZEtnVVBcBmIA72m5PWl66Sac7lsUVH8a4zDhYxJKWsTYBVLEmxNhb061yOKK6ExWLE2TUa7d7Q7C/wDm9btmi2IbOQoOgbUg/a8D4gC533AptxLhSSi9lWQe7JbUWFtTuRY2I8CadwxBQFGyi3qTqxPmf1NK00bUrhHFTBKyuLKXyuL/ALNr6+FwS172vr++qrdw1V3mLhIYNKly9gCoIGcbW6a+BvvpcAkhHlLi2ZRA5NxfITpceHSxGultLEWAyisnV029za1A0VzTPHnPliH275/JBbN/zEqnoxPSqYasQzRyEftZBa/RBG+T0vfN5GQ1DcsRkYzEgizDs82ulzEt7fP8asOPVmBt9lkt89fzX5Gqdy80rcSxkaSZBGIwTkuTaNRrc2F7CxtrY1F8qnhM47CWxDxjTtfrYT92VPfHxGpJ8R4U+4XjRLJmOjrEVkX7rK5B09b9dNulM+NYGVo2dcRnlhIcAKoy2AzCy63yEmx3uPKorFYFokSWB2kDWds2UN3mGYAoq2FzYjxttvTeidrfiMKGOYEo/wB5dD6G+jDyINcHFmP9tZR/aD3D/FfWP46bd4mo/l/EA3W0hNgWLNmVTuABYWvm3F76anepurl3E2aJqpU3W2Q7r+qn9Ovl1XRwRcVHnCvHrCQB/Zt+zP8ACQCYz6XH7vWiLEKXsLxy7lG0zedxo/8AEpNuvhRKSopOOQN5Ebg7j+o86UooV8++1jh3ZcQcgaSgOPj73/cGr6CrJ/bjg+7h5R0zIfwK/may+DG9rd7MMPk4dD+8XP8A3FfyUVco6r3JQH0KCwAul7DbVmP61Y0rMvLcUZxjhrSZXSZoio6MVU2OYX6aHxvoTVdOAmE6NPGoZ7o8qsFLhvdPdAUspAIIs22ml6u0yqyMGXMpBBW17i2ot1qlcVxTxPDGsgfCSsgCubyABxmFz3yoIsb3tt0qFm8eMnhxq9tOXjDlSZDbKojUh9so0KgkC/eO2pqw8w4xXIwaZWaVbvfXLGT3jp1tex6aeIprxXFqJRF2bSErmZVNs5uQitfQJo5byQb7VJ4fCqhZ7AyPq721Y+u+UaADoAK3j2nl0WVAAAosAAAPADQUFxfLcXIva+tha5t4aj51DY/i0mHb62MPGxOR473GhP1im9rDdgel7dKzSbmZo5JpJJFdpTIJCliyLkAjjj7Qd1FupPduxGtutXLTJjtYuapPpU8cIkjfL2kgjv8AVpkQlGkI98sdL6qATpfWrVwXK0YlC5Qc5sdCO+3d23Bvfz6kWqkriEmjlxavJ32UROzFCAIRoyxW0vmNhuI76ilOR+ILlRJpSjHI6qZWKhBGLlgSFN3WxBBILW1teol7VlOmioNNd+vr1rqm0BjfvI+YEnUSMR1vpmt0PypvI8Zzs5dViJzd9hfTW+t7W1v4WPWuly1ESbqQIvodqpvGuHdnKZRcFTnBvYanRzpopNlffKSkm5Jp7wDmHCYpiIbsBZSc7sQSdM6PY5TsHGl96luJ8KjljeO2Ustr6gjxBI1AOxtrY1m+Tf8AUrwrHLLEsg3t3h4Eb3t1v4aeGlqYcG4lHIHkcgOzMNFYAJGzBR3lFjozEdCxHSqtFxiPDyM0qOSxK5MobVScxO/eFlv4gg3NtFU4nHHJaJEdZWzSKbAXdmcMrH3TlIVr3HdFutTybxWPivEYvo0pWRC4XMAfEHMNBqem1VPk7jEay4vFSyRjtypALKhsikAm+172sCQMreNSHG+dcIscsS2zDukggLf93TvWOnSqPN/rjyLhoHkmkm7VLWyIhOva9beGgvr5Cst+m4zrtM8Mx0j4iP6Xio1jIaNlUh5CLXCs41cggasNBfa9WE43DLG8JxEZi74ViZFIDG9j3dbXPXUi/XRDgfKOEhkE00ck0kj3OaEqinLIWEa20U5tmJ90HepzjPBMHiIWiGGliBIu0UKoxsb2zEbXA+VSpEcM4vDE4VcTG1h9YgVy7EXC7R+7lK9Br5Wq3YTEl73RktbcEA3vtmAN9PCq1Lyrhkcyx4dw7hEtLYRrbIMwVDcN9WO8LWLMetPZUlylnlWNdr9rKLn17QVeOWk5Taw0nPAjjK6gjf0PQg7g+Y1quxSAYOOf6TIjOSCS5kDd9gQqte9hba+2t96jxxuQbTu++8YUC2upygkbj4VX7InhVpaORdiXA2N/rF+J0kHkdfNqdYTEhx0uN9x+B1X0Oo896pX/AK3EMxkxhH/FXwFu6CCN9/EGmc/PeEiy5Zc7A7hHa48AQdvU636WpyhwrSaontfw4bAAk2yyob+oYfnanPLHPSY2YQxwSe6zM5yhFAtY2zE6kgep8jT/AJ9ky4J3G6shHxYL+TGqx7Zejvkz/wDCw48IwPkSP0qwodKqXs8xPacPha9z3wT4/WMf1q1x1OXluJrNwlWYyI8kbm9yjaG+veV7qbHyqm49eyxKdqoeRZBmLW7ORJDpIEGkcl06DXIb7A1oYYAEnQCkyiOASFYbgkBhtoQfQnXzqK6IfDQJ2ssoNywUaggi1wdwLA5R8QafVDf+oyHHvE2UJ2YCWIN7d9SdLg2L6enxmavG7jllO0FzhxKPD4cSyEhFljvYXJBaxAHXS+nhesQ4tjcPiXz9oELlVfumwULe50uSGAW9tj4CtS9sMbHhxIFwssZY+A1F/mwHxrCEapy8rw8L7Ksb4Ptu0ISI7K3vtZkNxo17G6naxtfvGuuWuaEOJhSWKIqyxxaqrWXQXznVCD3iL26W61RJuzsuUsWt38wAAN9AtiSRbqbVxHve9j08b9KlT6PbAcPZjleMOTfuza3tocuYgGwGtulV/E4lCMfgXl7N+yLwuXv2imO2n7ykBSu9jpWU4SB3JyyIT1zSKNL/APyEX+H61LNw+VoxlSNiSRlSxbQXzEroBqRvfypct+mTHS58hYPDdsXhbIViYOSp0AdNDdtfdQgnXU+NWzFcalgeNJYlJlZwmRrElUZ9VbYWXxNiRWKNwnGqdIJbHYiNrfMCvZODY5hneGbu2F2je5vf3brc/CsmWm3HaX545rEmKdY41AQpmzWYOyA5swGh3y3vplNQJ4nqLKezAWyFibBbWzajNqOunlSMnC575TDL0v8AVtp4X7ulJzYGZSAYpLm9hlJv8hS3YcY3igkjEPZRqAQQy5s4sXIzNmOb9o+luo2tUryzzlJgUZIYoyHbM2bMSTlAH2tBvp51AHh04BJik03OQ/0rtOFzttFJ8UYfmKC34n2q45ipEcICm9ijHWxGhDjxNdn2tcQG0cFrdUa9/wDqVSm4ZP8A2Ul/4D/SlhwTFnLbDykEDaJz/d3psWDiPtQ4lKhRuyCnqqMGGtxYh9xVd4hzLiZgA72s2YFSwa9iNyxI36UqOXMadBhJ7j/4X/w2ptjOB4qFc8sMka+LrbXpvtWhtJxLEEANNKQNgZGIHpc6U3WVtiSeu/WhwPEV4APGg9JJ1OppSMDc9K8C1c/Zpy59LxYkdbxQWd77M+8aeeozEeAt1prZWmezrgBwuFDutppgGcHdVt9WnlYG5H3manHtDF8BKPEx/wD7FNWaqb7UcYYsFcNlJlQA2vbRidCDfb8a7Y9acr2Z+x3GZ8EU/s5LfAqP1BrRIzWLexPHgSTQk+8oZR/Cfz7x+VbMjVNbPJyBcVXYOH4wRJFfswiFMyOLuDoCwYEAiwJbe5NhqalsVLMpBjRJFtqpbI9/3SQVPobetRkHH5e2dHhbILWCgF003k7+oJvbKOlRVoPFYBovrI45e1gYgm6uhG4UC4yhs1hlXS+o1q04TErLGsi3swvY7jxB8CDcHzBpoMP2jMwzRxlw+U7yEFTmfNqg7igLp1vvamWP4wuGBcrnjeSQlgQAgWMEsdNVLixPTMTsKrHpGXZ7x/h30nDTYe4XtI2UMRcAnYkeRtWMt7J+JeMHwkP6pWpTc0FQSIQQWKIO0OYssscbdoqxkot5AVK5ywtoLgV1/pJJkWTsFyGF5TaVs1o2CEKvZa3LKRcqbHUAi1bdUlsZU3sq4l0EO39of8NeP7LuJA91I7ecoJ+eUflWtQcwl5uzWKygtndy6lQHZblezNvdJszL6mkRzUCiSLF3S7LIWZh2a3QoxCxsxzLIre6FXUFhYXzUbusqHsy4oP8AZxn/AIq/rXj+zbin9gjf8WP9TWwtxiVYpZGhS6SiNVWVmzHtBGST2QK6m9grE02/0lYPlaEKBIqSMXeyFo4XGgiz3vOB31Qd3Ui9g4w5VkTezjiv/tFPpLF+riu05B4uoKjCkbbTRDa/hJ5/gK1VObGcR9nAS0iRtZ2dQO0SR9MsTFgOztmAsc3S1e/6Wftbw/s2cCznUI8yXOaMAE9iT3Sw1301zjDdZUvI3GwLCB/hPGLn4SUDkvjYYHspBrf9umnykPn861xeYHHZdpEqLKyqWzuQpZwiCxhDXJP2gi7AMb6GL5jMcjxtEoIIEeaQjPeSOPMx7MoiBpVv3mYad25AreMOVZS/LXHbEGOdhbpiL/O8mtcPy5xw2+qxOm/1w1/761l+PuJVhESFybMRKzILCMkgpESbdqBqFGhuRSUHNOdhGsVpCVAWSTKozdoVLMEayskVwQDcsFsCDWcY3lWSy8r8aI/Y4m/j2o/x03k5T4yRZoMQf57/AN+tvwHGHkkkUxqEiv3ldnzEKjHL9WFI72lnJ0GmujZOPykQ2ijPbDMuWZnslkIL5ITZu/tqunvVvGM5Vh7ckcT3OEmPwBP50keTeJj/AHKf4Rk/lW4jmd2DBIBnVowyvLk0kmMUbKVja4Pdb4sN1seZeaJFV27BbLK0YvJJYlO0zMcsB0+qPu5jqL21pxhyrDDynxL/ANlif+i/9K4blfiI/wByxP8A0X/w19LYSbtI0kylc6q2U2JGYA2JGhtfpS9bxZzfM8fLePvYYPE3J6wuBfzJWwHma3zk/gK4LCxwixf3pWH2nb3vUDRR5KKnK8pMdFy29rL/AG4Yu0EEX3nZj/KAB/5GtQrCvbLj+0xwiBuIo1BHme8fwYfKqvUMfKvcjcU+jY2KQnu5rN/Cbhj8FJNfShlVRdiANNSbDU2GvmbV8lo1iD4G9fQ/JuOGOwKBybKBG5B7zFbEelxlv8anHuNy6qwcQxFiWjmjSRBlZJD3DpmFwCCrC97joT8KpwfESpIqQNFK0jFprZj1HeZ292wuALdToTV1igRblVAJ3PU+ZO5PrQkCKzOqqGa2YgWJttc9dzTiy5EkwvWQ9o2+o7o/hXbTxNz50u8SndQdCNQDoRYj4jSu6BVMJfR47lsi3NrnKLnL7t9NbWFvC1HYJ9xdb/ZHU3b5nU1TsIk3EZJXM8kUMblEWI5SbdWPjax1vvYbUvxWSfAYR/r2lZ3VI2cXKAgk6n3jobX020quHet9p5e1nkwcTHM0cbHxKAnXfUiunw0bEFkUkWIJUEi21rjSqdxDg+Kw0JxKYuVpEAZ1ZrodswAP6+HSusfxabFSYXDxOYRNEJJGX3gCGOVT0HdPzHnW8N+L0XLS5dmu2Ub3263vf1vreuGw0ZYMUUsDcEqCQbAXBte9gBfyFVF0mwGIgXt5JoZmyMspzFTcC4PT3ht4GoqKUSS4ntcfLAUlcIoc2IzNsL9LAWFJ8e+99M5NBkwcTABo42AsACgI0vbcdLn5122GjO6Kd91HXVunU71m+K4viHwcDySOn1zIZFJDMgUanL71iWHnlqV5caCTEII8fPKy3bs3DhWAFjfNp1pfj1NkzXCPBRLbLHGuUkrZFFidyLDS/lXRw0d2ORLsLMcouw8G01HrWa4CYOkjycQlikV2yJ2hNwBcG17nW408KtvAeMSfQPpGI1KKxJ2LhSQvxOg86ZfHpsz2m2wMJABjjIG10XTppppsPlXT4aMggxoQQAQVBBANwDpqAST8apfKnEcR2pjxDsfpMZkiOa+U3bRb+73bm37q0hjeFSx4uDDDGYgrKpJYubiwbbW32afr71azn1te0wsatnWNFYixYKA1vC4F7aCuGwEJ3ijOub3F3O52386qU0EkeMw+F7eVlaGQFi5uS3akE2O40sf3RXvCuNyRYHECViZcOzx3Y3JLEhCSdT3ifgtZwvmN5Lj2KfcXp0HQ5h8jr61ymEjDFxGgYm5YKAxPiTa5Op+dZ1xF5Yo8EsuJljEiu8rh2LDMVI0BubCwt61N8pmF5S0eNmnyobo4YLY6A97rW349TeyZd6W5EAAAAAGwAsB6V1RRUKFFFFAnNKqKzsbKoLMfAAXJ+Qr5d4/xFp8TLM1wXdjY9Lk6fDb4VuHtV419HwTRqbSTdwfwixc/kP5q+fDU5XrSsJ7FaL7JOYuwxBw7m0c1gL9H1yn4k2+I8KzqlIpCrBlNiDcGpxuqqzcfWtFVnkPmRcbhVcn61LLKOt+jfzW+YNWaujmKKKKCoDhuNwksr4RUlilbMUY2KnXbUePyt60viOF4vF4eSPFdnGxZWiCX7hAPvb3ve2/U1aKj+OzvHhppEOV0jdlNgbEA2NiCD8avlbZ9p10rmJw3FZ4xhpEijQ2DzA3LAW2F9zbXQX8qdcU4BKjQTYMr2kCBAr7OoBFj56t4b+VQ7cS4jHhlxZxkbqQD2TIgJu1rd1QT46Wp5x7jWI7TCiOYYdZYs7FgpVSRfUupt4fGr1lvU17RuHMXDcXiZ4pcWqRxxHMkam5ZtDc6nqB8rdb13wXltRJiHxMMb55S0ZYBu6Sx+G4pPh2KxSiWRsbFixHEzdnGqXzWupJQXtoRUTw7iuLmAdeIRJIdonRVG+guV1v5X33prKy6vTek9zZwmWVIBh0U9lJmymyrYDQW8L9KOGPxLtU7TD4dI799k0YC3TvnrbpTDmDiWLTExQriUgDRBnYqmTPd7nvgkA5bAXqS5bfEM7mTGxYlAtssYTuknQkoB0BqbuY96b1tG8L5QDQSpiI1WRpGKOLFlFhl1HS99POjEcNx8uHiwsiKFWQCSRWHejW2XTe/X+UedDczS/Td/wDVBJ2J0Fs9veva/vedrCnPM2NxQxUEEEwiEisSSqsLi5ucynwt8ar/AD33/LOtEeJcoJGEkwSkSxyKwDOSGAvcd42HT4XFSGO4dLJjcNOFASNGD6i4JDaee4ppwbimJTFnCzypMDGXEigDLbWxygD5+I8ab4PFY/HF5YZhh4VYqgyBi1urXHmPLW1tL1n+Xu/9/lvX0lMbwyVuIQ4gAdkkZVjfW/1nT+YVF8a5YkkxmdLdhKY2lF+qXvp1uPxY11xjH47DQxGSVM5nCs6Ktmjy372YWBuDsB0pbmLmEBoBhcQhLSqsgQo91JAsbg2Gu4pjy61/DLr2U5p4biZJsPLBGj9kGuHPd1tYEXFxvS/BWx/aWnggjjsbtH71+n2jp8KsJoqOXWl672KKKKlorw17VF9qXM4wuGMMbfWzAjTdU2Y+V9QPj4UGYe0fmH6Zi2KG8Ufcj8CBu3xJJ9CPCqfXpa5ua8rlbuukmoKKKKxqxcmcxyYHELKuqnSRfvKdx+RHmBX0fgMZHNGksbBkcXU/18CNiOlq+ThV/wDZxzqcG/YzEmBz69mfvDy8R+o1vG+kZT23qiuIpFZQykMrAEEG4IOoIPhXdWkVHcwRM+FnRAWZonAA3JKmwFSNFJdJZ63KH+qxTRx2xCgM8b3Iex1Uqdj5ddqW49HLLJhZjg5HVY2EkRFrG5GU6bdR5VfKKv8AZd7v92zhFR4RiJEMgi4aYWMZIJNgzL7qnQeJ61EcUhM6lBwto5m+2NFBvqSQAD8a0Wikz1d6bcds+4nwyaOXDF8O2KWPDqjgXILDP1sdrin2Exkkccwh4e8DlO6V1zNfKulhtmLfCriWtTPE8UjjF2YAdCzKgPpnIvW8rl1o4qevJT/Rf2svaZM/ZX7naZdiPHpfevZ+HS4uTBHEQyZRGyS3BFiuaxJG1yFPxq44fiMbi6sCCbAggqfQgkfCnd6X5MvbOEU/hfCWwWKZFiMkEwsJALtH+6x+7r+R6GkuGPi+H54Dh3miLFo3j87aHQ+A+N96u1FTzt8t4z0pPHUxeKhiMmGZCMQDkHePZ5bXfw1JpTmPl9FbDnDQAETKXKLsoIPe8quVFbM7PDOMBoooqFiiim+OxkcMbSSMERBdmP8AnU+VaG3HeLxYSF55T3VGg6seijzP5XNfNnMHGZMXO88huWOg6AbADyAAHwqY585ukx82l1hTSNP7zeLGqlXPK+lY4+xRRRULFFFFAUA0UUGh+z7n5sIRBiCXgJ0O5jv1XxHiPlrvuGGxEciLJGwdGF1ZTcEV8mXq2cn864jAtYHtIie9Gx09V+6fP866Y5faMsfp9G0VD8u8yYXGpnge5t3kOjr6jqPMaVMVSRRRRQFFFFBC8f8ApRikOGCmRR3Aep626FgNgdL1lkXC0xASWbGWkf3xJa6HPl1zOCPSw1Iq68Z4pLh8Ujrcrk7yE91vrJM3ob9fT0qA5i4HHjZO3wTL2j6ywv3GzdWQnu3PUXt1vvXr+KXCT6vt5p+Rhllcb1ZUfw7hUseJiTBYhZJJC+a3uKiEaygE5lIbY9dBrWtYOXvMhYMV6j/uHwP4EVnnBoDw6OS+VsTL3SVZWWNRqBoblr6k2tewuba2LkZmKOTc3kc3PXuR3PztWfNjcpy/tZj+Tjl8v68frtbqKKK8r1CiiigKKKrnNPOGFwKnO2eW3diU94+GY/ZH4+ANBMcT4jFh42lmcIi7k9fAAdSfAVgnPPO0mPfIl0gU91L7/vPbc/l8yYvmjmrE46TPK1lHuoPdX0Hj51AVOWX0uY/YNFFFc1CiiigKKKKAooooCiiigdYHGywuJInZHGxU2P4VqnK/tZ2TGp5dqg1/mXY+ot6GshoqplYyyV9W8N4nBiEzwSJIv7p1HqN1PrTyvlHA4+aFg8UjRsOqkg/hV74N7WMZFZZ0SdfE91/+ZdPmDVTKVFxrc6KonC/anw6Swkzwt+8My/NdfwqzYPmHBy/s8RE1+mcA/I2NVphnzPwjtkBB76+6TsNO8G8FNh00I86oztiIcyHtIgdxcgH4jQ+orWEIOoII8tfypJsKm9rehIHyFd/j+a4TV7jxfkfh4/Llyl1WWYLh0sp7qkL1dgco/wAR8hcmtK4LghDGsYuAOh36kk+ZJv5bU8WEA3tre9eu6r7xA9Tb86z5Plua/wAb8XH4fHdvt3RUPjeZ8DFftMTELdAwY/JbmqrxT2sYGO4iSSZv+Rfmbn8K46epoVRvGOOYXCrmnlVNLgbsfRRqaxbjXtSx811jywIfuDvfFjqPhaqRicVJIxZ2ZmO5Y3JqblI2Y1pfNHtWkkumDXsl27RtXPp0T4XPmKzOed3Yu7FmJuSTcm/rSNFTcrVySCiiipaKKKKAooooCiiigKKKKAooooCiiigKKKKApSJj40UVsDzA4uUHSRx/Mf61O4Pi2Jt+3l2H+0by86KK9WDh8hLHcWxJIBnlItt2jeJ86gsRiZCdXY+pPjXtFPk8N+M3mNJ0UV5a7CiiisBRRRQFFFFAUUUUBRRRQf/Z;" vertex="1" parent="1">
          <mxGeometry x="440" y="250" width="110" height="80" as="geometry" />
        </mxCell>
        <mxCell id="A_uLEfL_Cp8y6BZKQuvn-25" value="" style="endArrow=classic;html=1;" edge="1" parent="1" source="A_uLEfL_Cp8y6BZKQuvn-24" target="A_uLEfL_Cp8y6BZKQuvn-1">
          <mxGeometry width="50" height="50" relative="1" as="geometry">
            <mxPoint x="700" y="410" as="sourcePoint" />
            <mxPoint x="750" y="360" as="targetPoint" />
          </mxGeometry>
        </mxCell>
        <mxCell id="A_uLEfL_Cp8y6BZKQuvn-26" value="" style="shape=actor;whiteSpace=wrap;html=1;fillColor=#dae8fc;strokeColor=#6c8ebf;" vertex="1" parent="1">
          <mxGeometry x="430" y="160" width="40" height="60" as="geometry" />
        </mxCell>
        <mxCell id="A_uLEfL_Cp8y6BZKQuvn-30" value="" style="endArrow=none;dashed=1;html=1;dashPattern=1 3;strokeWidth=2;" edge="1" parent="1" source="A_uLEfL_Cp8y6BZKQuvn-10" target="A_uLEfL_Cp8y6BZKQuvn-13">
          <mxGeometry width="50" height="50" relative="1" as="geometry">
            <mxPoint x="700" y="410" as="sourcePoint" />
            <mxPoint x="750" y="360" as="targetPoint" />
          </mxGeometry>
        </mxCell>
        <mxCell id="A_uLEfL_Cp8y6BZKQuvn-31" value="" style="endArrow=none;dashed=1;html=1;dashPattern=1 3;strokeWidth=2;" edge="1" parent="1" source="A_uLEfL_Cp8y6BZKQuvn-10" target="A_uLEfL_Cp8y6BZKQuvn-14">
          <mxGeometry width="50" height="50" relative="1" as="geometry">
            <mxPoint x="700" y="410" as="sourcePoint" />
            <mxPoint x="750" y="360" as="targetPoint" />
          </mxGeometry>
        </mxCell>
        <mxCell id="A_uLEfL_Cp8y6BZKQuvn-32" value="" style="endArrow=none;dashed=1;html=1;dashPattern=1 3;strokeWidth=2;" edge="1" parent="1" source="A_uLEfL_Cp8y6BZKQuvn-16" target="A_uLEfL_Cp8y6BZKQuvn-18">
          <mxGeometry width="50" height="50" relative="1" as="geometry">
            <mxPoint x="700" y="410" as="sourcePoint" />
            <mxPoint x="750" y="360" as="targetPoint" />
          </mxGeometry>
        </mxCell>
        <mxCell id="A_uLEfL_Cp8y6BZKQuvn-33" value="" style="endArrow=none;dashed=1;html=1;dashPattern=1 3;strokeWidth=2;" edge="1" parent="1" source="A_uLEfL_Cp8y6BZKQuvn-16" target="A_uLEfL_Cp8y6BZKQuvn-19">
          <mxGeometry width="50" height="50" relative="1" as="geometry">
            <mxPoint x="700" y="410" as="sourcePoint" />
            <mxPoint x="750" y="360" as="targetPoint" />
          </mxGeometry>
        </mxCell>
        <mxCell id="A_uLEfL_Cp8y6BZKQuvn-34" value="" style="endArrow=none;dashed=1;html=1;dashPattern=1 3;strokeWidth=2;" edge="1" parent="1" source="A_uLEfL_Cp8y6BZKQuvn-24" target="A_uLEfL_Cp8y6BZKQuvn-26">
          <mxGeometry width="50" height="50" relative="1" as="geometry">
            <mxPoint x="700" y="410" as="sourcePoint" />
            <mxPoint x="750" y="360" as="targetPoint" />
          </mxGeometry>
        </mxCell>
        <mxCell id="A_uLEfL_Cp8y6BZKQuvn-35" value="QASP" style="shape=process;whiteSpace=wrap;html=1;backgroundOutline=1;" vertex="1" parent="1">
          <mxGeometry x="610" y="250" width="120" height="60" as="geometry" />
        </mxCell>
        <mxCell id="A_uLEfL_Cp8y6BZKQuvn-36" value="" style="endArrow=classic;html=1;" edge="1" parent="1" source="A_uLEfL_Cp8y6BZKQuvn-11" target="A_uLEfL_Cp8y6BZKQuvn-35">
          <mxGeometry width="50" height="50" relative="1" as="geometry">
            <mxPoint x="700" y="410" as="sourcePoint" />
            <mxPoint x="750" y="360" as="targetPoint" />
          </mxGeometry>
        </mxCell>
        <mxCell id="A_uLEfL_Cp8y6BZKQuvn-37" value="" style="endArrow=classic;html=1;" edge="1" parent="1" source="A_uLEfL_Cp8y6BZKQuvn-1" target="A_uLEfL_Cp8y6BZKQuvn-35">
          <mxGeometry width="50" height="50" relative="1" as="geometry">
            <mxPoint x="700" y="410" as="sourcePoint" />
            <mxPoint x="750" y="360" as="targetPoint" />
          </mxGeometry>
        </mxCell>
        <mxCell id="A_uLEfL_Cp8y6BZKQuvn-38" value="" style="endArrow=classic;startArrow=classic;html=1;" edge="1" parent="1" source="A_uLEfL_Cp8y6BZKQuvn-24" target="A_uLEfL_Cp8y6BZKQuvn-35">
          <mxGeometry width="50" height="50" relative="1" as="geometry">
            <mxPoint x="700" y="410" as="sourcePoint" />
            <mxPoint x="750" y="360" as="targetPoint" />
          </mxGeometry>
        </mxCell>
        <mxCell id="A_uLEfL_Cp8y6BZKQuvn-39" value="QA/QC" style="shape=process;whiteSpace=wrap;html=1;backgroundOutline=1;" vertex="1" parent="1">
          <mxGeometry x="610" y="170" width="120" height="60" as="geometry" />
        </mxCell>
        <mxCell id="A_uLEfL_Cp8y6BZKQuvn-40" value="" style="endArrow=classic;html=1;" edge="1" parent="1" source="A_uLEfL_Cp8y6BZKQuvn-11" target="A_uLEfL_Cp8y6BZKQuvn-39">
          <mxGeometry width="50" height="50" relative="1" as="geometry">
            <mxPoint x="700" y="410" as="sourcePoint" />
            <mxPoint x="750" y="360" as="targetPoint" />
          </mxGeometry>
        </mxCell>
        <mxCell id="A_uLEfL_Cp8y6BZKQuvn-42" value="Email" style="label;whiteSpace=wrap;html=1;align=center;verticalAlign=bottom;spacingLeft=0;spacingBottom=4;imageAlign=center;imageVerticalAlign=top;image=img/clipart/Gear_128x128.png" vertex="1" parent="1">
          <mxGeometry x="510" y="50" width="120" height="80" as="geometry" />
        </mxCell>
        <mxCell id="A_uLEfL_Cp8y6BZKQuvn-43" value="" style="endArrow=classic;html=1;" edge="1" parent="1" source="A_uLEfL_Cp8y6BZKQuvn-39" target="A_uLEfL_Cp8y6BZKQuvn-42">
          <mxGeometry width="50" height="50" relative="1" as="geometry">
            <mxPoint x="700" y="270" as="sourcePoint" />
            <mxPoint x="750" y="220" as="targetPoint" />
          </mxGeometry>
        </mxCell>
        <mxCell id="A_uLEfL_Cp8y6BZKQuvn-44" value="" style="shape=actor;whiteSpace=wrap;html=1;fillColor=#dae8fc;strokeColor=#6c8ebf;" vertex="1" parent="1">
          <mxGeometry x="510" y="-50" width="40" height="60" as="geometry" />
        </mxCell>
        <mxCell id="A_uLEfL_Cp8y6BZKQuvn-45" value="" style="endArrow=none;dashed=1;html=1;dashPattern=1 3;strokeWidth=2;" edge="1" parent="1" source="A_uLEfL_Cp8y6BZKQuvn-42" target="A_uLEfL_Cp8y6BZKQuvn-44">
          <mxGeometry width="50" height="50" relative="1" as="geometry">
            <mxPoint x="700" y="270" as="sourcePoint" />
            <mxPoint x="750" y="220" as="targetPoint" />
          </mxGeometry>
        </mxCell>
      </root>
    </mxGraphModel>
  </diagram>
</mxfile>
